<?xml version="1.0" encoding="utf-8"?>
<!-- Generator: Adobe Illustrator 16.0.0, SVG Export Plug-In . SVG Version: 6.00 Build 0)  -->
<!DOCTYPE svg PUBLIC "-//W3C//DTD SVG 1.0//EN" "http://www.w3.org/TR/2001/REC-SVG-20010904/DTD/svg10.dtd">
<svg version="1.0" id="Capa_1" xmlns="http://www.w3.org/2000/svg" xmlns:xlink="http://www.w3.org/1999/xlink" x="0px" y="0px"
	 width="360px" height="360px" viewBox="0 0 360 360" enable-background="new 0 0 360 360" xml:space="preserve">
<g>
	<g>
		<polygon fill="#F5EB23" points="339.728,180.001 282.895,203.513 323.93,249.334 262.512,245.778 279.603,304.874 
			225.775,275.104 215.527,335.756 179.999,285.518 144.473,335.756 134.223,275.104 80.396,304.874 97.487,245.778 36.07,249.332 
			77.106,203.511 20.272,180.001 77.106,156.489 36.071,110.669 97.488,114.223 80.396,55.126 134.224,84.896 144.473,24.244 
			179.999,74.483 215.527,24.245 225.775,84.896 279.604,55.126 262.513,114.225 323.93,110.67 282.895,156.489 		"/>
	</g>
	<g>
		<circle fill="#F5EB23" cx="179.999" cy="180.001" r="86.113"/>
		<path fill="#E7DC18" d="M180,270.923c-50.136,0-90.925-40.787-90.925-90.922c0-50.136,40.789-90.924,90.925-90.924
			c50.135,0,90.924,40.788,90.924,90.924C270.924,230.136,230.135,270.923,180,270.923z M180,98.697
			c-44.831,0-81.304,36.474-81.304,81.304c0,44.831,36.473,81.303,81.304,81.303s81.302-36.472,81.302-81.303
			C261.302,135.171,224.831,98.697,180,98.697z"/>
	</g>
</g>
<g>
	<path id="XMLID_2815_" d="M196.375,124.506c1.188,2.958,8.021,2.516,18.202,3.886s17.107,6.526,20.288,11.238
		c0,0-2.008-10.118-15.53-15.952C205.816,117.849,194.831,120.656,196.375,124.506z"/>
	<path id="XMLID_2814_" d="M163.622,124.506c-1.188,2.958-8.021,2.516-18.199,3.886c-10.181,1.37-17.108,6.526-20.288,11.238
		c0,0,2.008-10.118,15.527-15.952C154.184,117.849,165.169,120.656,163.622,124.506z"/>
	<g id="XMLID_2697_">
		<path id="XMLID_2736_" fill="#FFFFFF" d="M197.24,156.284c0,0,4.219-12.113,16.407-11.99
			c12.194,0.125,16.876,11.269,16.876,11.269s-3.302,11.754-16.634,11.645C201.482,167.108,197.24,156.284,197.24,156.284z"/>
		<path id="XMLID_2722_" fill="#C19A31" d="M196.932,155.556c0,0-0.297-8.452,2.672-12.863c2.972-4.412,12.21-10.462,23.562-4.878
			c11.35,5.584,9.056,18.082,9.056,18.082s-4.727-11.139-18.575-11.603C202.651,143.927,196.932,155.556,196.932,155.556z"/>
		<circle id="XMLID_2721_" fill="#F5EB23" cx="212.161" cy="154.987" r="9.203"/>
		<circle id="XMLID_2714_" cx="212.16" cy="154.987" r="4.523"/>
		<circle id="XMLID_2713_" fill="#FFFFFF" cx="207.96" cy="156.646" r="0.955"/>
		<path id="XMLID_2701_" fill="#FFFFFF" d="M213.949,152.49c0.208-1.209,1.36-2.019,2.568-1.808c1.208,0.211,2.016,1.362,1.808,2.57
			c-0.211,1.209-1.359,2.016-2.568,1.808C214.548,154.85,213.735,153.701,213.949,152.49z"/>
		<circle id="XMLID_2700_" fill="#FFFFFF" cx="215.827" cy="157.503" r="1.282"/>
		<path id="XMLID_2698_" d="M197.24,156.284c0.739,0.448,2.704-5.313,8.579-8.172c4.579-2.229,12.485-2.173,17.506,1.661
			c4.422,3.381,5.391,6.298,5.391,6.298s-1.833,5.45-7.37,8.589c-4.678,2.651-9.565,2.067-9.41,2.438
			c0.305,0.725,5.3,1.193,10.329-0.964c4.029-1.727,8.467-5.436,9.957-10.237c0.341-2.959-6.354-11.673-15.314-12.457
			c-8.962-0.781-14.358,2.639-17.095,6.472C197.078,153.748,196.458,155.815,197.24,156.284z"/>
	</g>
	<g id="XMLID_2679_">
		<path id="XMLID_2695_" fill="#FFFFFF" d="M162.757,156.284c0,0-4.216-12.113-16.407-11.99
			c-12.191,0.125-16.872,11.269-16.872,11.269s3.3,11.754,16.632,11.645C158.518,167.108,162.757,156.284,162.757,156.284z"/>
		<path id="XMLID_2690_" fill="#C19A31" d="M163.067,155.556c0,0,0.3-8.452-2.674-12.863c-2.97-4.412-12.21-10.462-23.56-4.878
			c-11.349,5.584-9.055,18.082-9.055,18.082s4.728-11.139,18.572-11.603C157.351,143.927,163.067,155.556,163.067,155.556z"/>
		<path id="XMLID_2688_" fill="#F5EB23" d="M138.771,156.565c-0.87-5.008,2.482-9.774,7.491-10.646
			c5.005-0.87,9.771,2.484,10.644,7.49c0.873,5.008-2.482,9.774-7.487,10.646C144.407,164.926,139.641,161.571,138.771,156.565z"/>
		<circle id="XMLID_2687_" cx="147.838" cy="154.987" r="4.522"/>
		<circle id="XMLID_2685_" fill="#FFFFFF" cx="152.04" cy="156.646" r="0.956"/>
		<path id="XMLID_2684_" fill="#FFFFFF" d="M145.433,157.284c-0.12-0.697-0.784-1.166-1.482-1.047
			c-0.698,0.123-1.164,0.786-1.044,1.484c0.12,0.698,0.787,1.167,1.485,1.045C145.089,158.644,145.559,157.982,145.433,157.284z"/>
		<circle id="XMLID_2682_" fill="#FFFFFF" cx="143.864" cy="152.872" r="2.222"/>
		<path id="XMLID_2681_" d="M162.757,156.284c-0.739,0.448-2.703-5.313-8.574-8.172c-4.583-2.229-12.49-2.173-17.511,1.661
			c-4.422,3.381-5.392,6.298-5.392,6.298s1.834,5.45,7.371,8.589c4.68,2.651,9.569,2.067,9.412,2.438
			c-0.307,0.725-5.303,1.193-10.329-0.964c-4.032-1.727-8.467-5.436-9.957-10.237c-0.341-2.959,6.353-11.673,15.314-12.457
			c8.962-0.781,14.358,2.639,17.093,6.472C162.921,153.748,163.539,155.815,162.757,156.284z"/>
	</g>
	<g id="XMLID_2668_">
		<path id="XMLID_2676_" fill="#F496BF" d="M179.931,203.51c-3.756,0-18.898-0.617-18.898-0.617s2.417,10.217,18.965,10.217
			c16.551,0,18.684-10.1,18.684-10.1L179.931,203.51z"/>
		<path id="XMLID_2675_" fill="#E8E4F2" d="M179.931,203.51c-3.756,0-15.189-0.617-15.189-0.617s4.115,4,15.384,4
			c11.27,0,14.848-3.883,14.848-3.883L179.931,203.51z"/>
		<path id="XMLID_2672_" fill="#C19A31" d="M197.203,203.236c-2.016,2.016-4.045,9.318-17.205,9.323
			c-13.157-0.005-15.184-7.308-17.202-9.323c-0.742-0.745-2.112-0.828-2.112-0.828s1.479,16.04,19.314,17.319v-0.094v0.094
			c17.837-1.279,19.316-17.319,19.316-17.319S197.948,202.491,197.203,203.236z"/>
		<path id="XMLID_2671_" d="M200.625,200.738c-1.873,0.581-9.083,0.354-12.665-0.138c-4.182-0.578-6.29,2.026-7.961,2.026
			s-3.776-2.604-7.959-2.026c-3.581,0.492-10.792,0.719-12.667,0.138c-1.047-0.325-0.391,4.256,20.626,4.256
			S201.672,200.413,200.625,200.738z"/>
		<path id="XMLID_2669_" d="M180.003,218.479c-8.422,0-12.563-3.433-12.563-3.433c1.167,2.722,5.183,6.243,12.563,6.243
			c7.381,0,11.397-3.521,12.564-6.243C192.567,215.047,188.429,218.479,180.003,218.479z"/>
	</g>
</g>
<g>
	<defs>
		<rect id="SVGID_3_" x="396" y="-0.57" width="360" height="361.141"/>
	</defs>
	<clipPath id="SVGID_2_">
		<use xlink:href="#SVGID_3_"  overflow="visible"/>
	</clipPath>
	<g clip-path="url(#SVGID_2_)">
		<g>
			<path fill="#FFFFFF" stroke="#B1D4E9" stroke-miterlimit="10" d="M355.58,187.003c0.056,1.605,0.176,3.272,0.395,4.969
				c0.704,5.554,9.467,17.262,29.744,25.102c24.341,9.4,54.519,13.338,75.314-2.415c-1.578,13.567,13.608,22.327,26.295,27.307
				c13.513,5.262,27.299,10.59,41.763,11.216c14.466,0.606,29.997-4.325,38.455-16.069c11.912,20.756,42.285,28.073,62.327,15.032
				c12.286,17.608,36.736,25.618,57.048,18.655c20.305-6.931,34.742-28.231,33.668-49.678c11.288,6.166,27.516-4.399,26.437-17.237
				c11.047,10.052,30.128,7.706,40.244-3.281c10.098-10.989,11.575-28.241,5.819-42.018c-3.877-9.269-10.583-17.038-18.611-23.153
				c0.284-3.404,0.01-6.866-0.809-10.188c-0.821-3.285-2.19-6.413-4.114-9.208c-7.512-10.914-22.831-15.636-35.196-10.893
				c4.972-15.483-7.255-33.945-23.437-35.423c-15.658-1.429-30.511,13.445-29.574,29.022c-0.766-7.124-6.595-12.568-12.48-16.772
				c-13.78-9.845-25.426-0.882-28.112,0.193c-3.954-19.138-22.018-33.796-48.503-33.022c-26.463,0.759-43.27,18.309-44.502,35.715
				c-6.319-9.003-20.032-11.776-29.358-5.939c-9.294,5.86-12.784,19.407-7.402,29.009c-15.74-14.946-40.239-19.888-60.533-12.219
				c-20.314,7.666-35.415,27.583-37.332,49.202C394.947,139.327,354.484,150.396,355.58,187.003z"/>
		</g>
		<path fill="#B1D4E9" d="M793.089,158.585c-3.877-9.269-10.583-17.038-18.611-23.153c-11.29-7.692-21.4-6.695-29.956-1.855
			c25.599,10.299,21.408,38.268,21.408,38.268c-7.1-20.753-18.233-26.917-28.017-30.035c-10.661-3.397-21.721-0.589-28.094,6.348
			c-4.732,5.151-5.31,13.248-3.268,20.016c-17.803-18.962-36.597-19.972-44.618-14.446c17.825,3.88,22.011,20.467,22.011,20.467
			c-46.086-22.508-71.963,0.61-71.963,0.61s1.72-22.834,33.021-23.785c-1.706-16.222-12.902-33.692-31.973-34.877
			c-23.543-1.447-42.984,15.327-42.048,40.488c-8.418-1.879-17.155,7.284-14.895,15.605c-5.833-4.602-12.03-9.39-19.377-10.586
			c-7.347-1.18-16.062,2.648-17.583,9.934c-10.287,1.023-18.727,11.278-17.721,21.563c-13.896-13.162-36.623-15.892-53.24-6.377
			c8.011-24.047,38.869-37.34,61.872-26.672c-0.532-16.932-17.282-31.535-34.13-29.761c-16.831,1.792-30.165,19.601-27.119,36.261
			c-12.069-3.791-25.836,9.076-22.842,21.375c-4.771-15.754-22.901-19.66-33.569-16.767c15.005,3.953,21.072,22.213,19.163,34.981
			c-4.878-11.576-19.911-35.484-55.961-19.183c0.056,1.605,0.176,3.272,0.395,4.969c0.704,5.554,9.467,17.262,29.744,25.102
			c24.341,9.4,54.519,13.338,75.314-2.415c-1.578,13.567,13.608,22.327,26.295,27.307c13.513,5.262,27.299,10.59,41.763,11.216
			c14.466,0.606,29.997-4.325,38.455-16.069c11.912,20.756,42.285,28.073,62.327,15.032c12.286,17.608,36.736,25.618,57.048,18.655
			c20.305-6.931,34.742-28.231,33.668-49.678c11.288,6.166,27.516-4.399,26.437-17.237c11.047,10.052,30.128,7.706,40.244-3.281
			C797.367,189.613,798.845,172.361,793.089,158.585z"/>
	</g>
</g>
<g>
	<path fill="#CBBD2D" d="M136.806,172.585c4.879,3.066,8.562,8.421,10.961,15.943c0.252,0.789-0.184,1.632-0.973,1.886
		c-0.789,0.251-1.632-0.185-1.885-0.974c-2.374-7.443-6.031-12.484-10.887-14.994c-4.851-2.506-11.084-2.572-18.528-0.197
		c-0.789,0.252-1.633-0.184-1.885-0.974c-0.252-0.79,0.184-1.634,0.974-1.886c8.229-2.624,15.232-2.493,20.815,0.392
		C135.878,172.028,136.347,172.297,136.806,172.585z"/>
</g>
<g>
	<path fill="#CBBD2D" d="M222.595,172.564c0.472-0.266,0.953-0.512,1.444-0.736c5.713-2.618,12.715-2.419,20.812,0.59
		c0.777,0.29,1.172,1.153,0.883,1.93c-0.288,0.776-1.151,1.173-1.928,0.884c-7.324-2.723-13.554-2.95-18.517-0.676
		c-4.965,2.275-8.86,7.14-11.582,14.464c-0.288,0.775-1.152,1.172-1.928,0.884c-0.777-0.29-1.172-1.153-0.884-1.93
		C213.645,180.573,217.577,175.398,222.595,172.564z"/>
</g>
</svg>
