<?xml version="1.0" encoding="utf-8"?>
<!-- Generator: Adobe Illustrator 16.0.0, SVG Export Plug-In . SVG Version: 6.00 Build 0)  -->
<!DOCTYPE svg PUBLIC "-//W3C//DTD SVG 1.0//EN" "http://www.w3.org/TR/2001/REC-SVG-20010904/DTD/svg10.dtd">
<svg version="1.0" id="Capa_1" xmlns="http://www.w3.org/2000/svg" xmlns:xlink="http://www.w3.org/1999/xlink" x="0px" y="0px"
	 width="360px" height="360px" viewBox="0 0 360 360" enable-background="new 0 0 360 360" xml:space="preserve">
<g>
	<defs>
		<rect id="SVGID_3_" y="-0.57" width="360" height="361.141"/>
	</defs>
	<clipPath id="SVGID_2_">
		<use xlink:href="#SVGID_3_"  overflow="visible"/>
	</clipPath>
	<g clip-path="url(#SVGID_2_)">
		<g>
			<path fill="#FFFFFF" stroke="#B1D4E9" stroke-miterlimit="10" d="M-40.42,187.003c0.056,1.605,0.176,3.272,0.395,4.969
				c0.704,5.554,9.467,17.262,29.744,25.102c24.341,9.4,54.519,13.338,75.314-2.415c-1.578,13.567,13.608,22.327,26.295,27.307
				c13.513,5.262,27.299,10.59,41.763,11.216c14.466,0.606,29.997-4.325,38.455-16.069c11.912,20.756,42.285,28.073,62.327,15.032
				c12.286,17.608,36.736,25.618,57.048,18.655c20.305-6.931,34.742-28.231,33.668-49.678c11.288,6.166,27.516-4.399,26.437-17.237
				c11.047,10.052,30.128,7.706,40.244-3.281c10.098-10.989,11.575-28.241,5.819-42.018c-3.877-9.269-10.583-17.038-18.611-23.153
				c0.284-3.404,0.01-6.866-0.809-10.188c-0.821-3.285-2.19-6.413-4.114-9.208c-7.512-10.914-22.831-15.636-35.196-10.893
				c4.972-15.483-7.255-33.945-23.437-35.423c-15.658-1.429-30.511,13.445-29.574,29.022c-0.766-7.124-6.595-12.568-12.48-16.772
				c-13.78-9.845-25.426-0.882-28.112,0.193c-3.954-19.138-22.018-33.796-48.503-33.022c-26.463,0.759-43.27,18.309-44.502,35.715
				c-6.319-9.003-20.032-11.776-29.358-5.939c-9.294,5.86-12.784,19.407-7.402,29.009C99.249,92.979,74.75,88.038,54.456,95.707
				c-20.314,7.666-35.415,27.583-37.332,49.202C-1.053,139.327-41.516,150.396-40.42,187.003z"/>
			<path fill="#FFFFFF" stroke="#B1D4E9" stroke-miterlimit="10" d="M256.603,187.021c-6.664-0.579-13.388,1.489-19.07,5.016
				c-1.019,0.632-2.121,1.339-3.312,1.202c-1.368-0.155-2.336-1.349-3.277-2.353c-5.16-5.504-13.428-7.161-20.899-6.097
				c-7.469,1.065-14.372,4.471-21.126,7.831c1.041-7.502,2.369-15.595,7.815-20.857c4.722-4.562,11.961-6.038,18.334-4.457
				c6.374,1.581,11.851,5.944,15.557,11.364c1.102,1.609,2.353,3.5,4.296,3.656c1.217,0.097,2.354-0.543,3.436-1.108
				c9.856-5.148,22.163-5.308,32.148-0.419c9.986,4.89,17.404,14.709,19.382,25.651
				C288.732,200.072,262.419,187.523,256.603,187.021z"/>
		</g>
		<path fill="#B1D4E9" d="M397.089,158.585c-3.877-9.269-10.583-17.038-18.611-23.153c-11.29-7.692-21.4-6.695-29.956-1.855
			c25.599,10.299,21.408,38.268,21.408,38.268c-7.1-20.753-18.233-26.917-28.017-30.035c-10.661-3.397-21.721-0.589-28.094,6.348
			c-4.732,5.151-5.31,13.248-3.268,20.016c-17.803-18.962-36.597-19.972-44.618-14.446c17.825,3.88,22.011,20.467,22.011,20.467
			c-46.086-22.508-71.963,0.61-71.963,0.61s1.72-22.834,33.021-23.785c-1.706-16.222-12.902-33.692-31.973-34.877
			c-23.543-1.447-42.984,15.327-42.048,40.488c-8.418-1.879-17.155,7.284-14.895,15.605c-5.833-4.602-12.03-9.39-19.377-10.586
			c-7.347-1.18-16.062,2.648-17.583,9.934c-10.287,1.023-18.727,11.278-17.721,21.563c-13.896-13.162-36.623-15.892-53.24-6.377
			c8.011-24.047,38.869-37.34,61.872-26.672c-0.532-16.932-17.282-31.535-34.13-29.761c-16.831,1.792-30.165,19.601-27.119,36.261
			c-12.069-3.791-25.836,9.076-22.842,21.375c-4.771-15.754-22.901-19.66-33.569-16.767c15.005,3.953,21.072,22.213,19.163,34.981
			c-4.878-11.576-19.911-35.484-55.961-19.183c0.056,1.605,0.176,3.272,0.395,4.969c0.704,5.554,9.467,17.262,29.744,25.102
			c24.341,9.4,54.519,13.338,75.314-2.415c-1.578,13.567,13.608,22.327,26.295,27.307c13.513,5.262,27.299,10.59,41.763,11.216
			c14.466,0.606,29.997-4.325,38.455-16.069c11.912,20.756,42.285,28.073,62.327,15.032c12.286,17.608,36.736,25.618,57.048,18.655
			c20.305-6.931,34.742-28.231,33.668-49.678c11.288,6.166,27.516-4.399,26.437-17.237c11.047,10.052,30.128,7.706,40.244-3.281
			C401.367,189.613,402.845,172.361,397.089,158.585z"/>
	</g>
	<g clip-path="url(#SVGID_2_)">
		<g>
			<polygon fill="#F5EB23" points="316.325,166.694 266.854,187.16 302.573,227.047 249.111,223.951 263.989,275.392 
				217.134,249.478 208.213,302.273 177.287,258.543 146.363,302.273 137.44,249.478 90.587,275.392 105.464,223.951 
				52.002,227.044 87.723,187.159 38.25,166.694 87.723,146.229 52.002,106.344 105.465,109.437 90.587,57.995 137.441,83.909 
				146.363,31.113 177.287,74.845 208.213,31.114 217.134,83.909 263.99,57.995 249.112,109.438 302.573,106.344 266.854,146.229 
							"/>
		</g>
		<g>
			<circle fill="#F5EB23" cx="177.287" cy="166.694" r="74.959"/>
			<path fill="#E7DC18" d="M177.288,245.839c-43.642,0-79.146-35.504-79.146-79.145c0-43.642,35.505-79.146,79.146-79.146
				c43.64,0,79.146,35.505,79.146,79.146C256.435,210.335,220.928,245.839,177.288,245.839z M177.288,95.923
				c-39.024,0-70.772,31.749-70.772,70.771c0,39.023,31.748,70.771,70.772,70.771c39.023,0,70.771-31.748,70.771-70.771
				C248.059,127.672,216.312,95.923,177.288,95.923z"/>
		</g>
	</g>
	<g clip-path="url(#SVGID_2_)">
		<g id="XMLID_3014_">
			<path id="XMLID_3027_" fill="#FFFFFF" d="M192.314,146.101c0,0,0.535-9.861,9.58-12.371c9.045-2.509,14.886,4.738,14.886,4.738
				s0.063,9.397-9.82,12.16C197.761,153.201,192.314,146.101,192.314,146.101z"/>
			<path id="XMLID_3021_" fill="#C19A31" d="M191.93,145.623c0,0-2.021-6.188-0.764-10.085c1.255-3.896,6.799-10.343,16.388-8.632
				c9.587,1.71,10.555,11.445,10.555,11.445s-5.871-7.232-16.214-4.622C193.68,135.803,191.93,145.623,191.93,145.623z"/>
			<path id="XMLID_3020_" d="M192.314,146.101c0.642,0.171,0.866-4.51,4.603-7.876c2.913-2.628,8.774-4.271,13.306-2.506
				c3.991,1.556,5.331,3.509,5.331,3.509s-0.194,4.423-3.62,7.926c-2.896,2.962-6.636,3.568-6.441,3.813
				c0.381,0.468,4.174-0.25,7.435-2.916c2.612-2.138,5.105-5.827,5.182-9.698c-0.378-2.26-7.188-7.28-13.984-5.949
				s-10.059,5.012-11.266,8.434C191.653,144.256,191.637,145.921,192.314,146.101z"/>
			<circle id="XMLID_3018_" fill="#F5EB23" cx="203.196" cy="143.302" r="7.086"/>
			<circle id="XMLID_3017_" cx="203.197" cy="143.302" r="3.481"/>
			<path id="XMLID_3015_" fill="#FFFFFF" d="M204.223,141.173c0-0.944,0.765-1.711,1.708-1.711c0.947,0,1.71,0.767,1.71,1.711
				s-0.763,1.71-1.71,1.71C204.987,142.883,204.223,142.117,204.223,141.173z"/>
		</g>
		<path id="XMLID_3011_" d="M188.21,129.816c-1.624,0.757-3.341,0.536-3.766,1.52c-0.823,1.913,1.494,4.731,6.558,2.622
			c3.41-1.421,9.567-6.228,12.418-7.973c6.17-3.771,10.782-5.083,14.197-3.894c0,0-4.754-4.232-12.772-1.181
			C195.48,124.474,193.083,127.546,188.21,129.816z"/>
		<g id="XMLID_2995_">
			<path id="XMLID_3010_" fill="#FFFFFF" d="M164.586,144.718c0,0-1.6-9.745-10.863-11.261c-9.263-1.516-14.286,6.319-14.286,6.319
				s0.953,9.35,11.081,11.028C159.941,152.364,164.586,144.718,164.586,144.718z"/>
			<path id="XMLID_3000_" fill="#C19A31" d="M164.917,144.205c0,0,0.824-4.707-0.846-8.446c-1.673-3.737-7.646-9.091-16.993-6.354
				c-9.346,2.736-8.974,10.399-8.974,10.399s3.746-6.603,14.312-5.127C160.805,135.852,164.917,144.205,164.917,144.205z"/>
			<circle id="XMLID_2999_" fill="#F5EB23" cx="153.44" cy="143.302" r="7.086"/>
			<circle id="XMLID_2998_" cx="153.441" cy="143.302" r="3.481"/>
			<circle id="XMLID_2997_" fill="#FFFFFF" cx="150.706" cy="141.173" r="1.71"/>
			<path id="XMLID_2996_" d="M164.586,144.718c-0.619,0.24-1.316-2.603-5.395-5.547c-3.181-2.298-7.179-3.48-12.838-2.1
				c-4.16,1.017-5.613,3.328-5.613,3.328s0.672,4.376,4.456,7.488c3.199,2.629,6.984,2.828,6.816,3.092
				c-0.326,0.507-4.179,0.206-7.708-2.096c-2.829-1.841-5.704-5.239-6.2-9.079c0.132-2.29,6.08-7.121,12.979-6.532
				c6.902,0.589,9.418,3.008,11.984,6.93C165.054,143.237,165.24,144.465,164.586,144.718z"/>
		</g>
		<g id="XMLID_2991_">
			<path id="XMLID_2994_" fill="#C19A31" d="M178.672,178.463l-15.381,0.762c0,0,4.301,8.325,15.379,8.325
				c11.076,0,15.387-8.262,15.387-8.262L178.672,178.463z"/>
			<path id="XMLID_2993_" d="M184.798,176.109c-2.657-0.822-4.841,0.548-6.128,0.548s-3.471-1.37-6.13-0.548
				c-2.658,0.823-11.02,3.308-10.247,3.715c2.009,0.917,6.338-0.664,16.377-0.331c10.04-0.333,14.368,1.248,16.378,0.331
				C195.818,179.417,187.456,176.933,184.798,176.109z"/>
			<path id="XMLID_2992_" d="M178.674,186.252c-6.486,0-9.672-1.215-9.672-1.215c0.898,2.096,3.99,3.379,9.672,3.379
				c5.68,0,8.772-1.283,9.67-3.379C188.344,185.037,185.158,186.252,178.674,186.252z"/>
		</g>
		<path id="XMLID_2990_" d="M165.812,125.897c1.765-0.027,3.19-0.958,3.986-0.272c1.552,1.339,0.71,4.832-4.678,5.137
			c-3.629,0.204-11.145-1.403-14.414-1.725c-7.08-0.688-11.727,0.131-14.239,2.646c0,0,2.391-5.786,10.8-6.527
			C157.083,124.289,160.526,125.982,165.812,125.897z"/>
	</g>
	<g clip-path="url(#SVGID_2_)">
		<path fill="#FFFFFF" stroke="#B1D4E9" stroke-miterlimit="10" d="M341.084,240.102c1.223-8.116,0.151-19.199-4.929-28.142
			c-0.354-0.604-0.708-1.208-1.062-1.813c-7.132-12.031-23.067-19.565-40.642-15.117c-3.941-9.116-13.008-15.499-23.571-15.499
			c-3.965,0-7.703,0.923-11.054,2.529c-13.761-17.087-42.771-43.814-88.053-34.53c-45.112,9.251-66.021,55.177-66.021,55.177
			c-15.666-14.535-48.188-8.284-64.042,6.802c-16.7,15.891-16.396,27.973-16.396,27.973c-11.052-7.092-28.848-0.004-31.872,10.581
			c-2.41,8.385,0.879,17.001,8.686,21.167c0.458,0.22,0.955,0.436,1.416,0.656c14.8,7.299,23.913,3.256,23.913,3.256
			c17.643,38.04,50.977,28.154,66.222,20.401c4.771-2.425,14.593-6.628,14.593-6.628s27.365,25.986,65.368,27.427
			c22.691,0.878,61.432-10.92,70.493-31.763c40.713,23.421,112.599,5.48,121.957-17.856
			C369.813,255.453,366.188,233.236,341.084,240.102z"/>
		<path fill="#B1D4E9" d="M366.091,264.723c-9.358,23.337-81.244,41.277-121.957,17.856c-9.062,20.843-47.802,32.641-70.493,31.763
			c-38.003-1.44-65.368-27.427-65.368-27.427s-9.821,4.203-14.593,6.628c-15.245,7.753-48.579,17.639-66.222-20.401
			c0,0-9.113,4.043-23.913-3.256c-0.461-0.221-0.958-0.437-1.416-0.656c1.686-0.304,3.346-0.646,4.939-1.04
			c21.808-5.154,50.991-25.942,70.342-6.479c-0.148-15.173-15.443-25.585-29.825-23.82c6.446-9.144,19.316-13.088,29.919-9.276
			c10.839,3.865,18.31,15.454,17.423,26.907c12.521-6.018,23.164-7.461,36.767-5.043c13.604,2.438,22.521,10.94,28.117,23.596
			c-4.143-22.391-15.955-35.13-38.664-33.813c-0.749-12.795,0.663-21.491,8.379-31.74c7.693-10.267,21.395-16.555,33.752-13.18
			c12.383,3.396,21.259,17.918,16.51,29.82c1.989-3.039,9.245-4.83,13.511-1.928c3.346,2.275,4.229,8.678,3.435,11.318
			c3.407-9.898,13.761-16.928,24.221-16.437c10.481,0.488,20.135,8.454,22.634,18.62c1.707-18.971-16.292-37.19-35.259-35.73
			c26.326-14.604,61.763-5.023,65.729,24.96c10.178-33.475,55.156-26.727,62.098-14.005c5.08,8.942,6.471,21.443,4.929,28.142
			C366.188,233.236,369.813,255.453,366.091,264.723z"/>
	</g>
</g>
</svg>
