<?xml version="1.0" encoding="UTF-8" standalone="no"?>
<svg
   xmlns:dc="http://purl.org/dc/elements/1.1/"
   xmlns:cc="http://creativecommons.org/ns#"
   xmlns:rdf="http://www.w3.org/1999/02/22-rdf-syntax-ns#"
   xmlns:svg="http://www.w3.org/2000/svg"
   xmlns="http://www.w3.org/2000/svg"
   xmlns:sodipodi="http://sodipodi.sourceforge.net/DTD/sodipodi-0.dtd"
   xmlns:inkscape="http://www.inkscape.org/namespaces/inkscape"
   sodipodi:docname="119.svg"
   inkscape:version="1.0 (4035a4fb49, 2020-05-01)"
   id="svg900"
   version="1.1"
   viewBox="0 0 95.249998 95.250003"
   height="360"
   width="360">
  <defs
     id="defs894" />
  <sodipodi:namedview
     inkscape:window-maximized="1"
     inkscape:window-y="-8"
     inkscape:window-x="-8"
     inkscape:window-height="1017"
     inkscape:window-width="1920"
     units="px"
     showgrid="false"
     inkscape:document-rotation="0"
     inkscape:current-layer="layer1"
     inkscape:document-units="mm"
     inkscape:cy="-9.004323"
     inkscape:cx="120.79453"
     inkscape:zoom="0.98994949"
     inkscape:pageshadow="2"
     inkscape:pageopacity="0.0"
     borderopacity="1.0"
     bordercolor="#666666"
     pagecolor="#ffffff"
     id="base" />
  <metadata
     id="metadata897">
    <rdf:RDF>
      <cc:Work
         rdf:about="">
        <dc:format>image/svg+xml</dc:format>
        <dc:type
           rdf:resource="http://purl.org/dc/dcmitype/StillImage" />
        <dc:title></dc:title>
      </cc:Work>
    </rdf:RDF>
  </metadata>
  <g
     id="layer1"
     inkscape:groupmode="layer"
     inkscape:label="Capa 1">
    <g
       transform="matrix(1.1432222,0,0,1.1432222,-5.9161427,-6.3503391)"
       id="g1541">
      <g
         id="g18"
         transform="matrix(0.26458333,0,0,0.26458333,-1.7545312,-16.929812)">
        <path
           id="path14"
           d="m 316.897,253.644 c 1.009,-6.701 0.125,-15.851 -4.069,-23.234 -0.293,-0.499 -0.584,-0.998 -0.876,-1.497 -5.889,-9.933 -19.043,-16.152 -33.555,-12.48 -3.253,-7.526 -10.738,-12.797 -19.461,-12.797 -3.272,0 -6.359,0.763 -9.126,2.088 -11.36,-14.105 -35.313,-36.173 -72.695,-28.508 -37.246,7.637 -54.509,45.554 -54.509,45.554 -12.933,-11.999 -39.783,-6.838 -52.872,5.616 -13.789,13.12 -13.537,23.094 -13.537,23.094 -9.125,-5.855 -23.817,-0.003 -26.315,8.735 -1.987,6.923 0.727,14.037 7.171,17.476 0.378,0.182 0.79,0.36 1.168,0.543 12.219,6.025 19.744,2.687 19.744,2.687 14.568,31.407 42.087,23.245 54.672,16.845 3.94,-2.002 12.049,-5.472 12.049,-5.472 0,0 22.592,21.455 53.968,22.643 18.733,0.726 50.717,-9.016 58.199,-26.223 33.612,19.336 92.962,4.525 100.688,-14.742 3.075,-7.655 0.083,-25.997 -20.644,-20.328 z"
           stroke-miterlimit="10"
           stroke="#b1d4e9"
           fill="#ffffff" />
        <path
           id="path16"
           d="m 337.543,273.971 c -7.727,19.267 -67.077,34.078 -100.688,14.742 -7.482,17.207 -39.466,26.949 -58.199,26.223 -31.375,-1.188 -53.968,-22.643 -53.968,-22.643 0,0 -8.109,3.47 -12.049,5.472 -12.584,6.4 -40.104,14.562 -54.672,-16.845 0,0 -7.525,3.338 -19.744,-2.687 -0.378,-0.183 -0.79,-0.361 -1.168,-0.543 1.392,-0.25 2.764,-0.532 4.079,-0.857 18.004,-4.255 42.099,-21.418 58.075,-5.35 -0.124,-12.527 -12.75,-21.124 -24.625,-19.667 5.321,-7.549 15.948,-10.805 24.702,-7.659 8.947,3.192 15.115,12.76 14.385,22.215 10.335,-4.968 19.123,-6.159 30.354,-4.164 11.232,2.013 18.591,9.033 23.212,19.481 -3.417,-18.485 -13.172,-29.003 -31.92,-27.916 -0.617,-10.563 0.548,-17.742 6.918,-26.205 6.352,-8.477 17.662,-13.667 27.866,-10.881 10.222,2.802 17.55,14.793 13.63,24.62 1.642,-2.509 7.633,-3.988 11.155,-1.593 2.761,1.879 3.491,7.166 2.835,9.346 2.813,-8.173 11.359,-13.977 19.996,-13.571 8.654,0.404 16.625,6.979 18.688,15.373 1.409,-15.662 -13.452,-30.704 -29.111,-29.499 21.736,-12.058 50.993,-4.147 54.266,20.606 8.403,-27.637 45.538,-22.065 51.269,-11.562 4.194,7.383 5.343,17.704 4.069,23.234 20.726,-5.666 23.718,12.676 20.645,20.33 z"
           fill="#b1d4e9" />
      </g>
      <g
         id="XMLID_1754_"
         transform="matrix(0.26458333,0,0,0.26458333,-1.7545312,-16.929812)">
        <g
           id="XMLID_1756_">
          <path
             d="m 200.684,240.037 c 0.244,-1.388 0.755,-2.725 1.273,-3.879 1.562,-3.496 6.405,-8.369 15.147,-5.81 5.573,1.633 7.559,5.945 8.264,8.855 0,0 -2.089,4.36 -11.967,5.74 -7.847,1.094 -12.717,-4.906 -12.717,-4.906 z"
             fill="#8dabb7"
             id="XMLID_1758_" />
          <path
             d="m 225.807,237.81 c -0.815,0.288 -1.47,1.365 -5.614,3.588 -3.644,1.956 -6.19,2.338 -9.871,1.993 -3.682,-0.345 -5.874,-1.646 -7.606,-2.82 -1.281,-0.866 -2.97,-1.405 -1.674,1.354 1.295,2.757 5.935,5.802 11.688,5.348 5.753,-0.454 8.943,-2.164 11.885,-5.979 1.978,-2.563 1.811,-3.703 1.192,-3.484 z"
             id="XMLID_1757_" />
        </g>
        <path
           d="m 224.667,239.552 c 0,0 0.062,2.018 0.746,2.892 1.414,1.807 2.593,0.82 2.266,1.587 -0.327,0.767 -3.063,1.613 -5.161,-0.933 z"
           id="XMLID_1755_" />
      </g>
      <g
         id="XMLID_1747_"
         transform="matrix(0.26458333,0,0,0.26458333,-1.7545312,-16.929812)">
        <g
           id="XMLID_1749_">
          <path
             d="m 179.403,240.037 c -0.242,-1.388 -0.756,-2.725 -1.272,-3.879 -1.563,-3.496 -6.407,-8.369 -15.147,-5.81 -5.575,1.633 -7.559,5.945 -8.266,8.855 0,0 2.089,4.36 11.969,5.74 7.846,1.094 12.716,-4.906 12.716,-4.906 z"
             fill="#8dabb7"
             id="XMLID_1751_" />
          <path
             d="m 154.279,237.81 c 0.816,0.288 1.472,1.365 5.616,3.588 3.642,1.956 6.188,2.338 9.869,1.993 3.681,-0.345 5.873,-1.646 7.606,-2.82 1.282,-0.866 2.97,-1.405 1.674,1.354 -1.296,2.757 -5.933,5.802 -11.686,5.348 -5.753,-0.454 -8.943,-2.164 -11.886,-5.979 -1.979,-2.563 -1.81,-3.703 -1.193,-3.484 z"
             id="XMLID_1750_" />
        </g>
        <path
           d="m 155.419,239.552 c 0,0 -0.06,2.018 -0.745,2.892 -1.416,1.807 -2.595,0.82 -2.267,1.587 0.328,0.767 3.064,1.613 5.162,-0.933 z"
           id="XMLID_1748_" />
      </g>
      <path
         d="m 49.311376,53.18583 c 0.318559,0 0.858838,-0.339725 1.516063,-0.135996 0.657754,0.203729 2.332831,0.167217 2.536031,0.212461 0.203994,0.04524 -0.04868,0.624946 -4.052358,0.624946 -4.004469,0 -4.256352,-0.579703 -4.052888,-0.624946 0.203994,-0.04524 1.878542,-0.0087 2.536031,-0.212461 0.658284,-0.203464 1.198563,0.135996 1.517121,0.135996 z"
         id="XMLID_1745_"
         style="stroke-width:0.264583" />
    </g>
  </g>
</svg>
