<?xml version="1.0" encoding="UTF-8" standalone="no"?>
<svg
   xmlns:dc="http://purl.org/dc/elements/1.1/"
   xmlns:cc="http://creativecommons.org/ns#"
   xmlns:rdf="http://www.w3.org/1999/02/22-rdf-syntax-ns#"
   xmlns:svg="http://www.w3.org/2000/svg"
   xmlns="http://www.w3.org/2000/svg"
   xmlns:xlink="http://www.w3.org/1999/xlink"
   xmlns:sodipodi="http://sodipodi.sourceforge.net/DTD/sodipodi-0.dtd"
   xmlns:inkscape="http://www.inkscape.org/namespaces/inkscape"
   inkscape:version="1.0 (4035a4fb49, 2020-05-01)"
   sodipodi:docname="1000.svg"
   xml:space="preserve"
   enable-background="new 0 0 360 360"
   viewBox="0 0 360 360"
   height="360px"
   width="360px"
   y="0px"
   x="0px"
   id="Capa_1"
   version="1.0"><metadata
   id="metadata71"><rdf:RDF><cc:Work
       rdf:about=""><dc:format>image/svg+xml</dc:format><dc:type
         rdf:resource="http://purl.org/dc/dcmitype/StillImage" /></cc:Work></rdf:RDF></metadata><defs
   id="defs69" /><sodipodi:namedview
   inkscape:current-layer="Capa_1"
   inkscape:window-maximized="1"
   inkscape:window-y="-8"
   inkscape:window-x="-8"
   inkscape:cy="180"
   inkscape:cx="98.470588"
   inkscape:zoom="2.3611111"
   showgrid="false"
   id="namedview67"
   inkscape:window-height="1017"
   inkscape:window-width="1920"
   inkscape:pageshadow="2"
   inkscape:pageopacity="0"
   guidetolerance="10"
   gridtolerance="10"
   objecttolerance="10"
   borderopacity="1"
   bordercolor="#666666"
   pagecolor="#ffffff" />


<g
   id="g56">
	<defs
   id="defs43">
		<rect
   height="361.141"
   width="360"
   y="-0.57"
   x="396"
   id="SVGID_3_" />
	</defs>
	<clipPath
   id="SVGID_2_">
		<use
   id="use45"
   overflow="visible"
   xlink:href="#SVGID_3_" />
	</clipPath>
	<g
   id="g54"
   clip-path="url(#SVGID_2_)">
		<g
   id="g50">
			<path
   id="path48"
   d="M355.58,187.003c0.056,1.605,0.176,3.272,0.395,4.969     c0.704,5.554,9.467,17.262,29.744,25.102c24.341,9.4,54.519,13.338,75.314-2.415c-1.578,13.567,13.608,22.327,26.295,27.307     c13.513,5.262,27.299,10.59,41.763,11.216c14.466,0.606,29.997-4.325,38.455-16.069c11.912,20.756,42.285,28.073,62.327,15.032     c12.286,17.608,36.736,25.618,57.048,18.655c20.305-6.931,34.742-28.231,33.668-49.678c11.288,6.166,27.516-4.399,26.437-17.237     c11.047,10.052,30.128,7.706,40.244-3.281c10.098-10.989,11.575-28.241,5.819-42.018c-3.877-9.269-10.583-17.038-18.611-23.153     c0.284-3.404,0.01-6.866-0.809-10.188c-0.821-3.285-2.19-6.413-4.114-9.208c-7.512-10.914-22.831-15.636-35.196-10.893     c4.972-15.483-7.255-33.945-23.437-35.423c-15.658-1.429-30.511,13.445-29.574,29.022c-0.766-7.124-6.595-12.568-12.48-16.772     c-13.78-9.845-25.426-0.882-28.112,0.193c-3.954-19.138-22.018-33.796-48.503-33.022c-26.463,0.759-43.27,18.309-44.502,35.715     c-6.319-9.003-20.032-11.776-29.358-5.939c-9.294,5.86-12.784,19.407-7.402,29.009c-15.74-14.946-40.239-19.888-60.533-12.219     c-20.314,7.666-35.415,27.583-37.332,49.202C394.947,139.327,354.484,150.396,355.58,187.003z"
   stroke-miterlimit="10"
   stroke="#B1D4E9"
   fill="#FFFFFF" />
		</g>
		<path
   id="path52"
   d="M793.089,158.585c-3.877-9.269-10.583-17.038-18.611-23.153c-11.29-7.692-21.4-6.695-29.956-1.855    c25.599,10.299,21.408,38.268,21.408,38.268c-7.1-20.753-18.233-26.917-28.017-30.035c-10.661-3.397-21.721-0.589-28.094,6.348    c-4.732,5.151-5.31,13.248-3.268,20.016c-17.803-18.962-36.597-19.972-44.618-14.446c17.825,3.88,22.011,20.467,22.011,20.467    c-46.086-22.508-71.963,0.61-71.963,0.61s1.72-22.834,33.021-23.785c-1.706-16.222-12.902-33.692-31.973-34.877    c-23.543-1.447-42.984,15.327-42.048,40.488c-8.418-1.879-17.155,7.284-14.895,15.605c-5.833-4.602-12.03-9.39-19.377-10.586    c-7.347-1.18-16.062,2.648-17.583,9.934c-10.287,1.023-18.727,11.278-17.721,21.563c-13.896-13.162-36.623-15.892-53.24-6.377    c8.011-24.047,38.869-37.34,61.872-26.672c-0.532-16.932-17.282-31.535-34.13-29.761c-16.831,1.792-30.165,19.601-27.119,36.261    c-12.069-3.791-25.836,9.076-22.842,21.375c-4.771-15.754-22.901-19.66-33.569-16.767c15.005,3.953,21.072,22.213,19.163,34.981    c-4.878-11.576-19.911-35.484-55.961-19.183c0.056,1.605,0.176,3.272,0.395,4.969c0.704,5.554,9.467,17.262,29.744,25.102    c24.341,9.4,54.519,13.338,75.314-2.415c-1.578,13.567,13.608,22.327,26.295,27.307c13.513,5.262,27.299,10.59,41.763,11.216    c14.466,0.606,29.997-4.325,38.455-16.069c11.912,20.756,42.285,28.073,62.327,15.032c12.286,17.608,36.736,25.618,57.048,18.655    c20.305-6.931,34.742-28.231,33.668-49.678c11.288,6.166,27.516-4.399,26.437-17.237c11.047,10.052,30.128,7.706,40.244-3.281    C797.367,189.613,798.845,172.361,793.089,158.585z"
   fill="#B1D4E9" />
	</g>
</g>


<g
   transform="matrix(1.9122818,0,0,1.9122818,-155.15233,-12.754312)"
   id="g7076"><path
     d="m 179.26939,34.545549 a 69.294931,69.294931 0 0 0 -2.92694,-0.709343 69.294931,69.294931 0 0 0 -65.41794,20.30184 54.839211,54.839211 0 0 1 39.97194,-6.54164 54.839211,54.839211 0 0 1 41.97531,64.520794 l -0.75313,3.19579 a 54.839211,54.839211 0 0 1 -66.33753,39.03524 54.839211,54.839211 0 0 1 -16.3562,-7.09725 69.294931,69.294931 0 0 0 35.18324,21.47776 69.294931,69.294931 0 0 0 83.82462,-49.32678 l 0.95074,-4.04076 A 69.294931,69.294931 0 0 0 179.26939,34.545549 Z"
     style="fill:#afafe9;fill-opacity:1;stroke:none;stroke-width:9.25166"
     id="path3137" /><path
     style="stroke-width:0.397944"
     id="XMLID_3027_-1"
     fill="#ffffff"
     d="m 216.21948,88.406907 c 0,0 0.2129,-3.924123 3.8123,-4.922962 3.5994,-0.99844 5.92379,1.885458 5.92379,1.885458 0,0 0.0251,3.739477 -3.9078,4.838996 -3.66069,1.023909 -5.82829,-1.801492 -5.82829,-1.801492 z" /><path
     style="fill:#e9afaf;stroke-width:0.397944"
     id="XMLID_3021_-4"
     fill="#c19a31"
     d="m 216.06667,88.21669 c 0,0 -0.80424,-2.462476 -0.30403,-4.013262 0.49942,-1.550389 2.70562,-4.115932 6.52151,-3.435051 3.81508,0.680484 4.20029,4.554466 4.20029,4.554466 0,0 -2.33633,-2.877929 -6.45226,-1.839296 -3.26911,0.825336 -3.96551,4.733143 -3.96551,4.733143 z" /><path
     style="stroke-width:0.397944"
     id="XMLID_3020_-2"
     d="m 216.21948,88.406907 c 0.25548,0.06805 0.34462,-1.794726 1.83174,-3.134205 1.15921,-1.045796 3.49156,-1.699617 5.29504,-0.997247 1.58819,0.619201 2.12143,1.396385 2.12143,1.396385 0,0 -0.0772,1.760105 -1.44055,3.154102 -1.15245,1.178709 -2.64076,1.419863 -2.56316,1.51736 0.15162,0.186237 1.66102,-0.09949 2.95871,-1.160404 1.03943,-0.850804 2.03151,-2.318819 2.06215,-3.859259 -0.15042,-0.899353 -2.86042,-2.89703 -5.56485,-2.367367 -2.70442,0.529663 -4.00291,1.994494 -4.48323,3.356257 -0.48032,1.360172 -0.48669,2.022748 -0.21728,2.094378 z" /><circle
     style="fill:#afe9c6;stroke-width:0.397944"
     id="XMLID_3018_-1"
     fill="#f5eb23"
     cx="220.54991"
     cy="87.29306"
     r="2.8198292" /><circle
     style="stroke-width:0.397944"
     id="XMLID_3017_-4"
     cx="220.55031"
     cy="87.29306"
     r="1.3852421" /><path
     style="stroke-width:0.397944"
     id="XMLID_3015_-0"
     fill="#ffffff"
     d="m 220.95859,86.445841 c 0,-0.375659 0.30443,-0.680882 0.67969,-0.680882 0.37686,0 0.68049,0.305223 0.68049,0.680882 0,0.375658 -0.30363,0.680483 -0.68049,0.680483 -0.37566,0 -0.67969,-0.304825 -0.67969,-0.680483 z" /><path
     style="stroke-width:0.397944"
     d="m 214.58632,81.926394 c -0.64626,0.301243 -1.32953,0.213297 -1.49865,0.604874 -0.32751,0.761266 0.59452,1.882672 2.60971,1.043409 1.35699,-0.565479 3.80713,-2.478394 4.94167,-3.172806 2.45531,-1.500646 4.29062,-2.022748 5.6496,-1.549593 0,0 -1.89182,-1.684098 -5.08253,-0.469971 -3.72675,1.418271 -4.68062,2.640754 -6.6198,3.544087 z"
     id="XMLID_3011_-3" /><path
     style="stroke-width:0.397944"
     id="XMLID_3010_-1"
     fill="#ffffff"
     d="m 205.1853,87.856551 c 0,0 -0.63671,-3.877962 -4.32286,-4.481244 -3.68616,-0.603283 -5.68503,2.514606 -5.68503,2.514606 0,0 0.37924,3.720774 4.40962,4.388524 3.74982,0.620792 5.59827,-2.421886 5.59827,-2.421886 z" /><path
     style="fill:#e9afaf;stroke-width:0.397944"
     id="XMLID_3000_-7"
     fill="#c19a31"
     d="m 205.31702,87.652406 c 0,0 0.3279,-1.873121 -0.33666,-3.361033 -0.66576,-1.487116 -3.04268,-3.617706 -6.76226,-2.528534 -3.71918,1.088774 -3.57115,4.138217 -3.57115,4.138217 0,0 1.4907,-2.627623 5.69537,-2.040258 3.33835,0.467584 4.9747,3.791608 4.9747,3.791608 z" /><circle
     style="fill:#afe9c6;stroke-width:0.397944"
     id="XMLID_2999_-3"
     fill="#f5eb23"
     cx="200.74982"
     cy="87.29306"
     r="2.8198292" /><circle
     style="stroke-width:0.397944"
     id="XMLID_2998_-6"
     cx="200.75021"
     cy="87.29306"
     r="1.3852421" /><circle
     style="stroke-width:0.397944"
     id="XMLID_2997_-4"
     fill="#ffffff"
     cx="199.66183"
     cy="86.445839"
     r="0.68048382" /><path
     style="stroke-width:0.397944"
     id="XMLID_2996_-3"
     d="m 205.1853,87.856551 c -0.24633,0.09551 -0.5237,-1.035847 -2.14691,-2.207394 -1.26586,-0.914474 -2.85684,-1.384844 -5.1088,-0.835682 -1.65545,0.404709 -2.23366,1.324357 -2.23366,1.324357 0,0 0.26742,1.741402 1.77324,2.979803 1.27302,1.046194 2.77924,1.125385 2.71238,1.230442 -0.12973,0.201757 -1.663,0.08198 -3.06735,-0.83409 -1.12578,-0.732615 -2.26987,-2.084827 -2.46725,-3.612931 0.0525,-0.911292 2.4195,-2.833758 5.16491,-2.599369 2.74661,0.234389 3.74784,1.197015 4.76896,2.75775 0.79072,1.207759 0.86473,1.696434 0.60448,1.797114 z" /><path
     style="fill:#800000;stroke-width:0.397944"
     id="XMLID_2994_-4"
     fill="#c19a31"
     d="m 210.79073,101.28516 -6.12077,0.30324 c 0,0 1.71156,3.31288 6.11998,3.31288 4.40762,0 6.12316,-3.28781 6.12316,-3.28781 z" /><path
     style="fill:#d40000;stroke-width:0.397944"
     id="XMLID_2993_-4"
     d="m 213.22854,100.3484 c -1.05734,-0.32711 -1.92645,0.21808 -2.4386,0.21808 -0.51216,0 -1.38126,-0.54519 -2.4394,-0.21808 -1.05773,0.32751 -4.38534,1.3164 -4.07773,1.47836 0.79947,0.36492 2.52217,-0.26423 6.51713,-0.13172 3.99535,-0.13251 5.71765,0.49664 6.51752,0.13172 0.30642,-0.16196 -3.02119,-1.15045 -4.07892,-1.47836 z" /><path
     style="fill:#d40000;stroke-width:0.397944"
     id="XMLID_2992_-2"
     d="m 210.79153,104.38475 c -2.58106,0 -3.84891,-0.48351 -3.84891,-0.48351 0.35735,0.83409 1.58779,1.34466 3.84891,1.34466 2.26032,0 3.49076,-0.51057 3.84812,-1.34466 0,0 -1.26785,0.48351 -3.84812,0.48351 z" /><path
     style="stroke-width:0.397944"
     d="m 205.67318,80.366852 c 0.70237,-0.01074 1.26944,-0.38123 1.5862,-0.108241 0.61761,0.532847 0.28254,1.922864 -1.86158,2.044237 -1.44414,0.08118 -4.43508,-0.558315 -5.73596,-0.686453 -2.81744,-0.273785 -4.66669,0.05213 -5.66632,1.05296 0,0 0.95148,-2.302503 4.29779,-2.597379 3.90622,-0.345017 5.27634,0.328701 7.37987,0.294876 z"
     id="XMLID_2990_-7" /></g></svg>
