<?xml version="1.0" encoding="utf-8"?>
<!-- Generator: Adobe Illustrator 16.0.0, SVG Export Plug-In . SVG Version: 6.00 Build 0)  -->
<!DOCTYPE svg PUBLIC "-//W3C//DTD SVG 1.0//EN" "http://www.w3.org/TR/2001/REC-SVG-20010904/DTD/svg10.dtd">
<svg version="1.0" id="Capa_1" xmlns="http://www.w3.org/2000/svg" xmlns:xlink="http://www.w3.org/1999/xlink" x="0px" y="0px"
	 width="360px" height="360px" viewBox="0 0 360 360" enable-background="new 0 0 360 360" xml:space="preserve">
<g>
	<defs>
		<rect id="SVGID_1_" width="360" height="361.142"/>
	</defs>
	<clipPath id="SVGID_2_">
		<use xlink:href="#SVGID_1_"  overflow="visible"/>
	</clipPath>
	<g clip-path="url(#SVGID_2_)">
		<g>
			<g>
				<path fill="#A0CDD3" d="M51.918,325.655c-0.828,0-1.5-0.672-1.5-1.5v-40.667c0-0.828,0.672-1.5,1.5-1.5s1.5,0.672,1.5,1.5
					v40.667C53.418,324.983,52.746,325.655,51.918,325.655z"/>
			</g>
			<g>
				<path fill="#A0CDD3" d="M51.918,235.654c-0.828,0-1.5-0.672-1.5-1.5V216.82c0-0.828,0.672-1.5,1.5-1.5s1.5,0.672,1.5,1.5v17.334
					C53.418,234.982,52.746,235.654,51.918,235.654z"/>
			</g>
			<g>
				<path fill="#A0CDD3" d="M51.918,136.154c-0.828,0-1.5-0.671-1.5-1.5V117.32c0-0.829,0.672-1.5,1.5-1.5s1.5,0.671,1.5,1.5v17.333
					C53.418,135.482,52.746,136.154,51.918,136.154z"/>
			</g>
			<g>
				<path fill="#A0CDD3" d="M51.918,264.654c-0.828,0-1.5-0.672-1.5-1.5V245.82c0-0.828,0.672-1.5,1.5-1.5s1.5,0.672,1.5,1.5v17.334
					C53.418,263.982,52.746,264.654,51.918,264.654z"/>
			</g>
			<g>
				<path fill="#A0CDD3" d="M51.918,206.82c-0.828,0-1.5-0.671-1.5-1.5v-10c0-0.829,0.672-1.5,1.5-1.5s1.5,0.671,1.5,1.5v10
					C53.418,206.149,52.746,206.82,51.918,206.82z"/>
			</g>
			<g>
				<path fill="#A0CDD3" d="M51.918,187.32c-0.828,0-1.5-0.671-1.5-1.5v-35.333c0-0.829,0.672-1.5,1.5-1.5s1.5,0.671,1.5,1.5v35.333
					C53.418,186.649,52.746,187.32,51.918,187.32z"/>
			</g>
			<g>
				<path fill="#A0CDD3" d="M51.918,349.155c-0.828,0-1.5-0.672-1.5-1.5v-14c0-0.828,0.672-1.5,1.5-1.5s1.5,0.672,1.5,1.5v14
					C53.418,348.483,52.746,349.155,51.918,349.155z"/>
			</g>
		</g>
		<g>
			<g>
				<path fill="#A0CDD3" d="M91.589,157.82c-0.829,0-1.5-0.671-1.5-1.5v-10c0-0.829,0.671-1.5,1.5-1.5s1.5,0.671,1.5,1.5v10
					C93.089,157.149,92.418,157.82,91.589,157.82z"/>
			</g>
			<g>
				<path fill="#A0CDD3" d="M91.589,338.321c-0.829,0-1.5-0.672-1.5-1.5v-22.666c0-0.829,0.671-1.5,1.5-1.5s1.5,0.672,1.5,1.5
					v22.666C93.089,337.649,92.418,338.321,91.589,338.321z"/>
			</g>
			<g>
				<path fill="#A0CDD3" d="M91.589,136.32c-0.829,0-1.5-0.671-1.5-1.5v-17.333c0-0.829,0.671-1.5,1.5-1.5s1.5,0.671,1.5,1.5v17.333
					C93.089,135.649,92.418,136.32,91.589,136.32z"/>
			</g>
			<g>
				<path fill="#A0CDD3" d="M91.589,204.32c-0.829,0-1.5-0.671-1.5-1.5v-35.333c0-0.829,0.671-1.5,1.5-1.5s1.5,0.671,1.5,1.5v35.333
					C93.089,203.649,92.418,204.32,91.589,204.32z"/>
			</g>
			<g>
				<path fill="#A0CDD3" d="M91.589,237.654c-0.829,0-1.5-0.672-1.5-1.5v-14c0-0.828,0.671-1.5,1.5-1.5s1.5,0.672,1.5,1.5v14
					C93.089,236.982,92.418,237.654,91.589,237.654z"/>
			</g>
			<g>
				<path fill="#A0CDD3" d="M91.589,294.987c-0.829,0-1.5-0.672-1.5-1.5V256.82c0-0.828,0.671-1.5,1.5-1.5s1.5,0.672,1.5,1.5v36.667
					C93.089,294.315,92.418,294.987,91.589,294.987z"/>
			</g>
		</g>
		<g>
			<g>
				<path fill="#A0CDD3" d="M33.638,168.654c-0.828,0-1.5-0.671-1.5-1.5V149.82c0-0.829,0.672-1.5,1.5-1.5s1.5,0.671,1.5,1.5v17.333
					C35.138,167.982,34.466,168.654,33.638,168.654z"/>
			</g>
			<g>
				<path fill="#A0CDD3" d="M33.638,136.82c-0.828,0-1.5-0.671-1.5-1.5v-17.333c0-0.829,0.672-1.5,1.5-1.5s1.5,0.671,1.5,1.5v17.333
					C35.138,136.149,34.466,136.82,33.638,136.82z"/>
			</g>
			<g>
				<path fill="#A0CDD3" d="M33.638,273.32c-0.828,0-1.5-0.672-1.5-1.5v-35.333c0-0.828,0.672-1.5,1.5-1.5s1.5,0.672,1.5,1.5v35.333
					C35.138,272.648,34.466,273.32,33.638,273.32z"/>
			</g>
			<g>
				<path fill="#A0CDD3" d="M33.638,227.487c-0.828,0-1.5-0.672-1.5-1.5v-45.333c0-0.829,0.672-1.5,1.5-1.5s1.5,0.671,1.5,1.5
					v45.333C35.138,226.815,34.466,227.487,33.638,227.487z"/>
			</g>
			<g>
				<path fill="#A0CDD3" d="M33.638,344.487c-0.828,0-1.5-0.672-1.5-1.5v-45.333c0-0.828,0.672-1.5,1.5-1.5s1.5,0.672,1.5,1.5
					v45.333C35.138,343.815,34.466,344.487,33.638,344.487z"/>
			</g>
		</g>
		<g>
			<g>
				<path fill="#A0CDD3" d="M110.112,117.82c-0.829,0-1.5-0.671-1.5-1.5v-10c0-0.829,0.671-1.5,1.5-1.5s1.5,0.671,1.5,1.5v10
					C111.612,117.149,110.941,117.82,110.112,117.82z"/>
			</g>
			<g>
				<path fill="#A0CDD3" d="M110.112,171.654c-0.829,0-1.5-0.671-1.5-1.5V138.82c0-0.829,0.671-1.5,1.5-1.5s1.5,0.671,1.5,1.5
					v31.333C111.612,170.982,110.941,171.654,110.112,171.654z"/>
			</g>
			<g>
				<path fill="#A0CDD3" d="M110.112,199.654c-0.829,0-1.5-0.671-1.5-1.5v-12c0-0.829,0.671-1.5,1.5-1.5s1.5,0.671,1.5,1.5v12
					C111.612,198.982,110.941,199.654,110.112,199.654z"/>
			</g>
			<g>
				<path fill="#A0CDD3" d="M110.112,254.32c-0.829,0-1.5-0.672-1.5-1.5v-33.333c0-0.828,0.671-1.5,1.5-1.5s1.5,0.672,1.5,1.5
					v33.333C111.612,253.648,110.941,254.32,110.112,254.32z"/>
			</g>
			<g>
				<path fill="#A0CDD3" d="M110.112,362.655c-0.829,0-1.5-0.672-1.5-1.5v-14c0-0.828,0.671-1.5,1.5-1.5s1.5,0.672,1.5,1.5v14
					C111.612,361.983,110.941,362.655,110.112,362.655z"/>
			</g>
			<g>
				<path fill="#A0CDD3" d="M110.112,98.654c-0.829,0-1.5-0.671-1.5-1.5v-14c0-0.829,0.671-1.5,1.5-1.5s1.5,0.671,1.5,1.5v14
					C111.612,97.982,110.941,98.654,110.112,98.654z"/>
			</g>
			<g>
				<path fill="#A0CDD3" d="M110.112,328.987c-0.829,0-1.5-0.672-1.5-1.5v-45.333c0-0.828,0.671-1.5,1.5-1.5s1.5,0.672,1.5,1.5
					v45.333C111.612,328.315,110.941,328.987,110.112,328.987z"/>
			</g>
		</g>
		<g>
			<g>
				<path fill="#A0CDD3" d="M128.195,179.805c-0.828,0-1.5-0.671-1.5-1.5v-39.03c0-0.829,0.672-1.5,1.5-1.5
					c0.829,0,1.5,0.671,1.5,1.5v39.03C129.695,179.133,129.024,179.805,128.195,179.805z"/>
			</g>
			<g>
				<path fill="#A0CDD3" d="M128.195,128.458c-0.828,0-1.5-0.671-1.5-1.5V87.927c0-0.829,0.672-1.5,1.5-1.5
					c0.829,0,1.5,0.671,1.5,1.5v39.031C129.695,127.786,129.024,128.458,128.195,128.458z"/>
			</g>
			<g>
				<path fill="#A0CDD3" d="M128.195,231.633c-0.828,0-1.5-0.672-1.5-1.5v-21.755c0-0.829,0.672-1.5,1.5-1.5
					c0.829,0,1.5,0.671,1.5,1.5v21.755C129.695,230.961,129.024,231.633,128.195,231.633z"/>
			</g>
			<g>
				<path fill="#A0CDD3" d="M128.195,324.411c-0.828,0-1.5-0.672-1.5-1.5v-9.598c0-0.828,0.672-1.5,1.5-1.5
					c0.829,0,1.5,0.672,1.5,1.5v9.598C129.695,323.739,129.024,324.411,128.195,324.411z"/>
			</g>
			<g>
				<path fill="#A0CDD3" d="M128.195,360.881c-0.828,0-1.5-0.672-1.5-1.5v-16.637c0-0.828,0.672-1.5,1.5-1.5
					c0.829,0,1.5,0.672,1.5,1.5v16.637C129.695,360.209,129.024,360.881,128.195,360.881z"/>
			</g>
			<g>
				<path fill="#A0CDD3" d="M128.195,294.817c-0.828,0-1.5-0.672-1.5-1.5v-43.51c0-0.828,0.672-1.5,1.5-1.5
					c0.829,0,1.5,0.672,1.5,1.5v43.51C129.695,294.146,129.024,294.817,128.195,294.817z"/>
			</g>
		</g>
		<g>
			<g>
				<path fill="#A0CDD3" d="M72.084,257.654c-0.828,0-1.5-0.672-1.5-1.5V224.82c0-0.828,0.672-1.5,1.5-1.5
					c0.829,0,1.5,0.672,1.5,1.5v31.334C73.584,256.982,72.913,257.654,72.084,257.654z"/>
			</g>
			<g>
				<path fill="#A0CDD3" d="M72.084,291.154c-0.828,0-1.5-0.672-1.5-1.5v-14c0-0.828,0.672-1.5,1.5-1.5c0.829,0,1.5,0.672,1.5,1.5
					v14C73.584,290.482,72.913,291.154,72.084,291.154z"/>
			</g>
			<g>
				<path fill="#A0CDD3" d="M72.084,117.154c-0.828,0-1.5-0.671-1.5-1.5v-14c0-0.829,0.672-1.5,1.5-1.5c0.829,0,1.5,0.671,1.5,1.5
					v14C73.584,116.482,72.913,117.154,72.084,117.154z"/>
			</g>
			<g>
				<path fill="#A0CDD3" d="M72.084,353.987c-0.828,0-1.5-0.672-1.5-1.5v-36.666c0-0.828,0.672-1.5,1.5-1.5
					c0.829,0,1.5,0.672,1.5,1.5v36.666C73.584,353.315,72.913,353.987,72.084,353.987z"/>
			</g>
			<g>
				<path fill="#A0CDD3" d="M72.084,175.987c-0.828,0-1.5-0.671-1.5-1.5v-45.333c0-0.829,0.672-1.5,1.5-1.5
					c0.829,0,1.5,0.671,1.5,1.5v45.333C73.584,175.316,72.913,175.987,72.084,175.987z"/>
			</g>
			<g>
				<path fill="#A0CDD3" d="M72.084,207.32c-0.828,0-1.5-0.671-1.5-1.5v-19.333c0-0.829,0.672-1.5,1.5-1.5
					c0.829,0,1.5,0.671,1.5,1.5v19.333C73.584,206.649,72.913,207.32,72.084,207.32z"/>
			</g>
		</g>
		<g>
			<g>
				<path fill="#A0CDD3" d="M243.916,325.655c-0.829,0-1.5-0.672-1.5-1.5v-40.667c0-0.828,0.671-1.5,1.5-1.5
					c0.828,0,1.5,0.672,1.5,1.5v40.667C245.416,324.983,244.744,325.655,243.916,325.655z"/>
			</g>
			<g>
				<path fill="#A0CDD3" d="M243.916,235.654c-0.829,0-1.5-0.672-1.5-1.5V216.82c0-0.828,0.671-1.5,1.5-1.5
					c0.828,0,1.5,0.672,1.5,1.5v17.334C245.416,234.982,244.744,235.654,243.916,235.654z"/>
			</g>
			<g>
				<path fill="#A0CDD3" d="M243.916,136.154c-0.829,0-1.5-0.671-1.5-1.5V117.32c0-0.829,0.671-1.5,1.5-1.5
					c0.828,0,1.5,0.671,1.5,1.5v17.333C245.416,135.482,244.744,136.154,243.916,136.154z"/>
			</g>
			<g>
				<path fill="#A0CDD3" d="M243.916,264.654c-0.829,0-1.5-0.672-1.5-1.5V245.82c0-0.828,0.671-1.5,1.5-1.5
					c0.828,0,1.5,0.672,1.5,1.5v17.334C245.416,263.982,244.744,264.654,243.916,264.654z"/>
			</g>
			<g>
				<path fill="#A0CDD3" d="M243.916,206.82c-0.829,0-1.5-0.671-1.5-1.5v-10c0-0.829,0.671-1.5,1.5-1.5c0.828,0,1.5,0.671,1.5,1.5
					v10C245.416,206.149,244.744,206.82,243.916,206.82z"/>
			</g>
			<g>
				<path fill="#A0CDD3" d="M243.916,103.487c-0.829,0-1.5-0.671-1.5-1.5v-10c0-0.829,0.671-1.5,1.5-1.5c0.828,0,1.5,0.671,1.5,1.5
					v10C245.416,102.816,244.744,103.487,243.916,103.487z"/>
			</g>
			<g>
				<path fill="#A0CDD3" d="M243.916,187.32c-0.829,0-1.5-0.671-1.5-1.5v-35.333c0-0.829,0.671-1.5,1.5-1.5
					c0.828,0,1.5,0.671,1.5,1.5v35.333C245.416,186.649,244.744,187.32,243.916,187.32z"/>
			</g>
			<g>
				<path fill="#A0CDD3" d="M243.916,349.155c-0.829,0-1.5-0.672-1.5-1.5v-14c0-0.828,0.671-1.5,1.5-1.5c0.828,0,1.5,0.672,1.5,1.5
					v14C245.416,348.483,244.744,349.155,243.916,349.155z"/>
			</g>
		</g>
		<g>
			<g>
				<path fill="#A0CDD3" d="M204.244,157.82c-0.828,0-1.5-0.671-1.5-1.5v-10c0-0.829,0.672-1.5,1.5-1.5s1.5,0.671,1.5,1.5v10
					C205.744,157.149,205.072,157.82,204.244,157.82z"/>
			</g>
			<g>
				<path fill="#A0CDD3" d="M204.244,108.487c-0.828,0-1.5-0.671-1.5-1.5v-10c0-0.829,0.672-1.5,1.5-1.5s1.5,0.671,1.5,1.5v10
					C205.744,107.816,205.072,108.487,204.244,108.487z"/>
			</g>
			<g>
				<path fill="#A0CDD3" d="M204.244,338.321c-0.828,0-1.5-0.672-1.5-1.5v-22.666c0-0.829,0.672-1.5,1.5-1.5s1.5,0.672,1.5,1.5
					v22.666C205.744,337.649,205.072,338.321,204.244,338.321z"/>
			</g>
			<g>
				<path fill="#A0CDD3" d="M204.244,136.32c-0.828,0-1.5-0.671-1.5-1.5v-17.333c0-0.829,0.672-1.5,1.5-1.5s1.5,0.671,1.5,1.5
					v17.333C205.744,135.649,205.072,136.32,204.244,136.32z"/>
			</g>
			<g>
				<path fill="#A0CDD3" d="M204.244,204.32c-0.828,0-1.5-0.671-1.5-1.5v-35.333c0-0.829,0.672-1.5,1.5-1.5s1.5,0.671,1.5,1.5
					v35.333C205.744,203.649,205.072,204.32,204.244,204.32z"/>
			</g>
			<g>
				<path fill="#A0CDD3" d="M204.244,237.654c-0.828,0-1.5-0.672-1.5-1.5v-14c0-0.828,0.672-1.5,1.5-1.5s1.5,0.672,1.5,1.5v14
					C205.744,236.982,205.072,237.654,204.244,237.654z"/>
			</g>
			<g>
				<path fill="#A0CDD3" d="M204.244,294.987c-0.828,0-1.5-0.672-1.5-1.5V256.82c0-0.828,0.672-1.5,1.5-1.5s1.5,0.672,1.5,1.5
					v36.667C205.744,294.315,205.072,294.987,204.244,294.987z"/>
			</g>
		</g>
		<g>
			<g>
				<path fill="#A0CDD3" d="M147.744,122.82c-0.828,0-1.5-0.671-1.5-1.5v-10c0-0.829,0.672-1.5,1.5-1.5s1.5,0.671,1.5,1.5v10
					C149.244,122.149,148.572,122.82,147.744,122.82z"/>
			</g>
			<g>
				<path fill="#A0CDD3" d="M147.744,300.32c-0.828,0-1.5-0.672-1.5-1.5v-22.666c0-0.828,0.672-1.5,1.5-1.5s1.5,0.672,1.5,1.5
					v22.666C149.244,299.648,148.572,300.32,147.744,300.32z"/>
			</g>
			<g>
				<path fill="#A0CDD3" d="M147.744,101.32c-0.828,0-1.5-0.671-1.5-1.5V82.487c0-0.829,0.672-1.5,1.5-1.5s1.5,0.671,1.5,1.5V99.82
					C149.244,100.649,148.572,101.32,147.744,101.32z"/>
			</g>
			<g>
				<path fill="#A0CDD3" d="M147.744,378.821c-0.828,0-1.5-0.672-1.5-1.5v-17.334c0-0.828,0.672-1.5,1.5-1.5s1.5,0.672,1.5,1.5
					v17.334C149.244,378.149,148.572,378.821,147.744,378.821z"/>
			</g>
			<g>
				<path fill="#A0CDD3" d="M147.744,169.32c-0.828,0-1.5-0.671-1.5-1.5v-35.333c0-0.829,0.672-1.5,1.5-1.5s1.5,0.671,1.5,1.5
					v35.333C149.244,168.649,148.572,169.32,147.744,169.32z"/>
			</g>
			<g>
				<path fill="#A0CDD3" d="M147.744,202.654c-0.828,0-1.5-0.671-1.5-1.5v-14c0-0.829,0.672-1.5,1.5-1.5s1.5,0.671,1.5,1.5v14
					C149.244,201.982,148.572,202.654,147.744,202.654z"/>
			</g>
			<g>
				<path fill="#A0CDD3" d="M147.744,259.987c-0.828,0-1.5-0.672-1.5-1.5V221.82c0-0.828,0.672-1.5,1.5-1.5s1.5,0.672,1.5,1.5
					v36.667C149.244,259.315,148.572,259.987,147.744,259.987z"/>
			</g>
			<g>
				<path fill="#A0CDD3" d="M147.744,349.987c-0.828,0-1.5-0.672-1.5-1.5V311.82c0-0.828,0.672-1.5,1.5-1.5s1.5,0.672,1.5,1.5
					v36.667C149.244,349.315,148.572,349.987,147.744,349.987z"/>
			</g>
		</g>
		<g>
			<g>
				<path fill="#A0CDD3" d="M262.195,165.47c-0.828,0-1.5-0.671-1.5-1.5v-16.675c0-0.829,0.672-1.5,1.5-1.5
					c0.829,0,1.5,0.671,1.5,1.5v16.675C263.695,164.798,263.024,165.47,262.195,165.47z"/>
			</g>
			<g>
				<path fill="#A0CDD3" d="M262.195,102.938c-0.828,0-1.5-0.671-1.5-1.5V84.764c0-0.829,0.672-1.5,1.5-1.5
					c0.829,0,1.5,0.671,1.5,1.5v16.675C263.695,102.267,263.024,102.938,262.195,102.938z"/>
			</g>
			<g>
				<path fill="#A0CDD3" d="M262.195,134.845c-0.828,0-1.5-0.671-1.5-1.5V116.67c0-0.829,0.672-1.5,1.5-1.5
					c0.829,0,1.5,0.671,1.5,1.5v16.675C263.695,134.174,263.024,134.845,262.195,134.845z"/>
			</g>
			<g>
				<path fill="#A0CDD3" d="M262.195,271.612c-0.828,0-1.5-0.672-1.5-1.5v-33.991c0-0.828,0.672-1.5,1.5-1.5
					c0.829,0,1.5,0.672,1.5,1.5v33.991C263.695,270.94,263.024,271.612,262.195,271.612z"/>
			</g>
			<g>
				<path fill="#A0CDD3" d="M262.195,222.068c-0.828,0-1.5-0.672-1.5-1.5v-43.611c0-0.829,0.672-1.5,1.5-1.5
					c0.829,0,1.5,0.671,1.5,1.5v43.611C263.695,221.396,263.024,222.068,262.195,222.068z"/>
			</g>
			<g>
				<path fill="#A0CDD3" d="M262.195,328.211c-0.828,0-1.5-0.672-1.5-1.5V283.1c0-0.828,0.672-1.5,1.5-1.5
					c0.829,0,1.5,0.672,1.5,1.5v43.612C263.695,327.54,263.024,328.211,262.195,328.211z"/>
			</g>
		</g>
		<g>
			<g>
				<path fill="#A0CDD3" d="M185.721,88.82c-0.828,0-1.5-0.671-1.5-1.5v-10c0-0.829,0.672-1.5,1.5-1.5c0.829,0,1.5,0.671,1.5,1.5v10
					C187.221,88.149,186.55,88.82,185.721,88.82z"/>
			</g>
			<g>
				<path fill="#A0CDD3" d="M185.721,179.32c-0.828,0-1.5-0.671-1.5-1.5v-31.333c0-0.829,0.672-1.5,1.5-1.5
					c0.829,0,1.5,0.671,1.5,1.5v31.333C187.221,178.649,186.55,179.32,185.721,179.32z"/>
			</g>
			<g>
				<path fill="#A0CDD3" d="M185.721,208.32c-0.828,0-1.5-0.671-1.5-1.5v-12c0-0.829,0.672-1.5,1.5-1.5c0.829,0,1.5,0.671,1.5,1.5
					v12C187.221,207.649,186.55,208.32,185.721,208.32z"/>
			</g>
			<g>
				<path fill="#A0CDD3" d="M185.721,258.654c-0.828,0-1.5-0.672-1.5-1.5V223.82c0-0.828,0.672-1.5,1.5-1.5
					c0.829,0,1.5,0.672,1.5,1.5v33.334C187.221,257.982,186.55,258.654,185.721,258.654z"/>
			</g>
			<g>
				<path fill="#A0CDD3" d="M185.721,134.32c-0.828,0-1.5-0.671-1.5-1.5V99.487c0-0.829,0.672-1.5,1.5-1.5
					c0.829,0,1.5,0.671,1.5,1.5v33.333C187.221,133.649,186.55,134.32,185.721,134.32z"/>
			</g>
			<g>
				<path fill="#A0CDD3" d="M185.721,362.655c-0.828,0-1.5-0.672-1.5-1.5v-14c0-0.828,0.672-1.5,1.5-1.5c0.829,0,1.5,0.672,1.5,1.5
					v14C187.221,361.983,186.55,362.655,185.721,362.655z"/>
			</g>
			<g>
				<path fill="#A0CDD3" d="M185.721,328.987c-0.828,0-1.5-0.672-1.5-1.5v-45.333c0-0.828,0.672-1.5,1.5-1.5
					c0.829,0,1.5,0.672,1.5,1.5v45.333C187.221,328.315,186.55,328.987,185.721,328.987z"/>
			</g>
		</g>
		<g>
			<g>
				<path fill="#A0CDD3" d="M167.638,179.805c-0.829,0-1.5-0.671-1.5-1.5v-39.03c0-0.829,0.671-1.5,1.5-1.5s1.5,0.671,1.5,1.5v39.03
					C169.138,179.133,168.467,179.805,167.638,179.805z"/>
			</g>
			<g>
				<path fill="#A0CDD3" d="M167.638,128.458c-0.829,0-1.5-0.671-1.5-1.5V87.927c0-0.829,0.671-1.5,1.5-1.5s1.5,0.671,1.5,1.5
					v39.031C169.138,127.786,168.467,128.458,167.638,128.458z"/>
			</g>
			<g>
				<path fill="#A0CDD3" d="M167.638,231.633c-0.829,0-1.5-0.672-1.5-1.5v-21.755c0-0.829,0.671-1.5,1.5-1.5s1.5,0.671,1.5,1.5
					v21.755C169.138,230.961,168.467,231.633,167.638,231.633z"/>
			</g>
			<g>
				<path fill="#A0CDD3" d="M167.638,79.632c-0.829,0-1.5-0.671-1.5-1.5V56.377c0-0.829,0.671-1.5,1.5-1.5s1.5,0.671,1.5,1.5v21.755
					C169.138,78.961,168.467,79.632,167.638,79.632z"/>
			</g>
			<g>
				<path fill="#A0CDD3" d="M167.638,324.411c-0.829,0-1.5-0.672-1.5-1.5v-9.598c0-0.828,0.671-1.5,1.5-1.5s1.5,0.672,1.5,1.5v9.598
					C169.138,323.739,168.467,324.411,167.638,324.411z"/>
			</g>
			<g>
				<path fill="#A0CDD3" d="M167.638,360.881c-0.829,0-1.5-0.672-1.5-1.5v-16.637c0-0.828,0.671-1.5,1.5-1.5s1.5,0.672,1.5,1.5
					v16.637C169.138,360.209,168.467,360.881,167.638,360.881z"/>
			</g>
			<g>
				<path fill="#A0CDD3" d="M167.638,294.817c-0.829,0-1.5-0.672-1.5-1.5v-43.51c0-0.828,0.671-1.5,1.5-1.5s1.5,0.672,1.5,1.5v43.51
					C169.138,294.146,168.467,294.817,167.638,294.817z"/>
			</g>
		</g>
		<g>
			<g>
				<path fill="#A0CDD3" d="M223.749,257.654c-0.829,0-1.5-0.672-1.5-1.5V224.82c0-0.828,0.671-1.5,1.5-1.5s1.5,0.672,1.5,1.5
					v31.334C225.249,256.982,224.578,257.654,223.749,257.654z"/>
			</g>
			<g>
				<path fill="#A0CDD3" d="M223.749,291.154c-0.829,0-1.5-0.672-1.5-1.5v-14c0-0.828,0.671-1.5,1.5-1.5s1.5,0.672,1.5,1.5v14
					C225.249,290.482,224.578,291.154,223.749,291.154z"/>
			</g>
			<g>
				<path fill="#A0CDD3" d="M223.749,353.987c-0.829,0-1.5-0.672-1.5-1.5v-36.666c0-0.828,0.671-1.5,1.5-1.5s1.5,0.672,1.5,1.5
					v36.666C225.249,353.315,224.578,353.987,223.749,353.987z"/>
			</g>
			<g>
				<path fill="#A0CDD3" d="M223.749,175.987c-0.829,0-1.5-0.671-1.5-1.5v-45.333c0-0.829,0.671-1.5,1.5-1.5s1.5,0.671,1.5,1.5
					v45.333C225.249,175.316,224.578,175.987,223.749,175.987z"/>
			</g>
			<g>
				<path fill="#A0CDD3" d="M223.749,207.32c-0.829,0-1.5-0.671-1.5-1.5v-19.333c0-0.829,0.671-1.5,1.5-1.5s1.5,0.671,1.5,1.5
					v19.333C225.249,206.649,224.578,207.32,223.749,207.32z"/>
			</g>
			<g>
				<path fill="#A0CDD3" d="M223.749,117.32c-0.829,0-1.5-0.671-1.5-1.5V96.487c0-0.829,0.671-1.5,1.5-1.5s1.5,0.671,1.5,1.5v19.333
					C225.249,116.649,224.578,117.32,223.749,117.32z"/>
			</g>
		</g>
		<g>
			<g>
				<path fill="#A0CDD3" d="M300.584,302.987c-0.828,0-1.5-0.672-1.5-1.5V260.82c0-0.828,0.672-1.5,1.5-1.5s1.5,0.672,1.5,1.5
					v40.667C302.084,302.315,301.412,302.987,300.584,302.987z"/>
			</g>
			<g>
				<path fill="#A0CDD3" d="M300.584,212.987c-0.828,0-1.5-0.671-1.5-1.5v-17.333c0-0.829,0.672-1.5,1.5-1.5s1.5,0.671,1.5,1.5
					v17.333C302.084,212.316,301.412,212.987,300.584,212.987z"/>
			</g>
			<g>
				<path fill="#A0CDD3" d="M300.584,113.487c-0.828,0-1.5-0.671-1.5-1.5V94.654c0-0.829,0.672-1.5,1.5-1.5s1.5,0.671,1.5,1.5
					v17.333C302.084,112.816,301.412,113.487,300.584,113.487z"/>
			</g>
			<g>
				<path fill="#A0CDD3" d="M300.584,241.987c-0.828,0-1.5-0.672-1.5-1.5v-17.333c0-0.828,0.672-1.5,1.5-1.5s1.5,0.672,1.5,1.5
					v17.333C302.084,241.315,301.412,241.987,300.584,241.987z"/>
			</g>
			<g>
				<path fill="#A0CDD3" d="M300.584,184.154c-0.828,0-1.5-0.671-1.5-1.5v-10c0-0.829,0.672-1.5,1.5-1.5s1.5,0.671,1.5,1.5v10
					C302.084,183.482,301.412,184.154,300.584,184.154z"/>
			</g>
			<g>
				<path fill="#A0CDD3" d="M300.584,164.654c-0.828,0-1.5-0.671-1.5-1.5V127.82c0-0.829,0.672-1.5,1.5-1.5s1.5,0.671,1.5,1.5
					v35.333C302.084,163.982,301.412,164.654,300.584,164.654z"/>
			</g>
			<g>
				<path fill="#A0CDD3" d="M300.584,326.487c-0.828,0-1.5-0.672-1.5-1.5v-14c0-0.828,0.672-1.5,1.5-1.5s1.5,0.672,1.5,1.5v14
					C302.084,325.815,301.412,326.487,300.584,326.487z"/>
			</g>
		</g>
		<g>
			<g>
				<path fill="#A0CDD3" d="M340.256,126.677c-0.828,0-1.5-0.671-1.5-1.5v-10.499c0-0.829,0.672-1.5,1.5-1.5s1.5,0.671,1.5,1.5
					v10.499C341.756,126.005,341.084,126.677,340.256,126.677z"/>
			</g>
			<g>
				<path fill="#A0CDD3" d="M340.256,316.184c-0.828,0-1.5-0.672-1.5-1.5v-23.797c0-0.828,0.672-1.5,1.5-1.5s1.5,0.672,1.5,1.5
					v23.797C341.756,315.512,341.084,316.184,340.256,316.184z"/>
			</g>
			<g>
				<path fill="#A0CDD3" d="M340.256,104.104c-0.828,0-1.5-0.671-1.5-1.5V84.405c0-0.829,0.672-1.5,1.5-1.5s1.5,0.671,1.5,1.5
					v18.199C341.756,103.433,341.084,104.104,340.256,104.104z"/>
			</g>
			<g>
				<path fill="#A0CDD3" d="M340.256,175.498c-0.828,0-1.5-0.671-1.5-1.5v-37.097c0-0.829,0.672-1.5,1.5-1.5s1.5,0.671,1.5,1.5
					v37.097C341.756,174.826,341.084,175.498,340.256,175.498z"/>
			</g>
			<g>
				<path fill="#A0CDD3" d="M340.256,210.494c-0.828,0-1.5-0.671-1.5-1.5v-14.699c0-0.829,0.672-1.5,1.5-1.5s1.5,0.671,1.5,1.5
					v14.699C341.756,209.823,341.084,210.494,340.256,210.494z"/>
			</g>
			<g>
				<path fill="#A0CDD3" d="M340.256,270.688c-0.828,0-1.5-0.672-1.5-1.5v-38.496c0-0.828,0.672-1.5,1.5-1.5s1.5,0.672,1.5,1.5
					v38.496C341.756,270.017,341.084,270.688,340.256,270.688z"/>
			</g>
		</g>
		<g>
			<g>
				<path fill="#A0CDD3" d="M282.305,147.987c-0.828,0-1.5-0.671-1.5-1.5v-17.333c0-0.829,0.672-1.5,1.5-1.5s1.5,0.671,1.5,1.5
					v17.333C283.805,147.316,283.133,147.987,282.305,147.987z"/>
			</g>
			<g>
				<path fill="#A0CDD3" d="M282.305,339.987c-0.828,0-1.5-0.672-1.5-1.5v-17.332c0-0.828,0.672-1.5,1.5-1.5s1.5,0.672,1.5,1.5
					v17.332C283.805,339.315,283.133,339.987,282.305,339.987z"/>
			</g>
			<g>
				<path fill="#A0CDD3" d="M282.305,116.154c-0.828,0-1.5-0.671-1.5-1.5V97.32c0-0.829,0.672-1.5,1.5-1.5s1.5,0.671,1.5,1.5v17.333
					C283.805,115.482,283.133,116.154,282.305,116.154z"/>
			</g>
			<g>
				<path fill="#A0CDD3" d="M282.305,252.654c-0.828,0-1.5-0.672-1.5-1.5V215.82c0-0.829,0.672-1.5,1.5-1.5s1.5,0.671,1.5,1.5
					v35.334C283.805,251.982,283.133,252.654,282.305,252.654z"/>
			</g>
			<g>
				<path fill="#A0CDD3" d="M282.305,206.82c-0.828,0-1.5-0.671-1.5-1.5v-45.333c0-0.829,0.672-1.5,1.5-1.5s1.5,0.671,1.5,1.5
					v45.333C283.805,206.149,283.133,206.82,282.305,206.82z"/>
			</g>
			<g>
				<path fill="#A0CDD3" d="M282.305,313.821c-0.828,0-1.5-0.672-1.5-1.5v-45.333c0-0.828,0.672-1.5,1.5-1.5s1.5,0.672,1.5,1.5
					v45.333C283.805,313.148,283.133,313.821,282.305,313.821z"/>
			</g>
		</g>
		<g>
			<g>
				<path fill="#A0CDD3" d="M320.751,236.451c-0.828,0-1.5-0.672-1.5-1.5v-27.075c0-0.829,0.672-1.5,1.5-1.5s1.5,0.671,1.5,1.5
					v27.075C322.251,235.779,321.579,236.451,320.751,236.451z"/>
			</g>
			<g>
				<path fill="#A0CDD3" d="M320.751,265.397c-0.828,0-1.5-0.672-1.5-1.5v-12.097c0-0.828,0.672-1.5,1.5-1.5s1.5,0.672,1.5,1.5
					v12.097C322.251,264.726,321.579,265.397,320.751,265.397z"/>
			</g>
			<g>
				<path fill="#A0CDD3" d="M320.751,115.047c-0.828,0-1.5-0.671-1.5-1.5V101.45c0-0.829,0.672-1.5,1.5-1.5s1.5,0.671,1.5,1.5
					v12.097C322.251,114.376,321.579,115.047,320.751,115.047z"/>
			</g>
			<g>
				<path fill="#A0CDD3" d="M320.751,319.692c-0.828,0-1.5-0.672-1.5-1.5v-31.684c0-0.828,0.672-1.5,1.5-1.5s1.5,0.672,1.5,1.5
					v31.684C322.251,319.02,321.579,319.692,320.751,319.692z"/>
			</g>
			<g>
				<path fill="#A0CDD3" d="M320.751,165.884c-0.828,0-1.5-0.671-1.5-1.5v-39.172c0-0.829,0.672-1.5,1.5-1.5s1.5,0.671,1.5,1.5
					v39.172C322.251,165.213,321.579,165.884,320.751,165.884z"/>
			</g>
			<g>
				<path fill="#A0CDD3" d="M320.751,192.959c-0.828,0-1.5-0.671-1.5-1.5v-16.706c0-0.829,0.672-1.5,1.5-1.5s1.5,0.671,1.5,1.5
					v16.706C322.251,192.288,321.579,192.959,320.751,192.959z"/>
			</g>
		</g>
	</g>
	<g clip-path="url(#SVGID_2_)">
		<g>
			<path fill="#FFFFFF" stroke="#B1D4E9" stroke-miterlimit="10" d="M6.021,123.616c0.044,1.267,0.139,2.583,0.312,3.921
				c0.556,4.384,7.473,13.625,23.477,19.812c19.213,7.42,43.032,10.529,59.446-1.906c-1.245,10.708,10.741,17.624,20.755,21.554
				c10.666,4.153,21.547,8.359,32.964,8.852c11.418,0.479,23.677-3.413,30.353-12.683c9.402,16.382,33.376,22.158,49.195,11.866
				c9.697,13.898,28.996,20.22,45.028,14.724c16.026-5.47,27.422-22.284,26.574-39.21c8.909,4.867,21.718-3.473,20.866-13.606
				c8.72,7.935,23.78,6.083,31.765-2.589c7.971-8.674,9.137-22.292,4.594-33.165c-3.061-7.315-8.354-13.448-14.69-18.275
				c0.225-2.688,0.008-5.419-0.638-8.041c-0.648-2.594-1.729-5.062-3.248-7.269c-5.929-8.614-18.021-12.341-27.78-8.598
				c3.924-12.221-5.727-26.793-18.499-27.959c-12.358-1.127-24.082,10.612-23.343,22.908c-0.604-5.624-5.205-9.921-9.851-13.238
				c-10.877-7.771-20.069-0.697-22.189,0.152c-3.121-15.106-17.379-26.675-38.283-26.064c-20.888,0.599-34.153,14.451-35.126,28.189
				c-4.988-7.105-15.812-9.295-23.173-4.688c-7.336,4.625-10.091,15.318-5.843,22.897c-12.424-11.797-31.761-15.698-47.779-9.646
				c-16.034,6.051-27.953,21.771-29.466,38.837C37.094,85.985,5.156,94.721,6.021,123.616z"/>
			<path fill="#FFFFFF" stroke="#B1D4E9" stroke-miterlimit="10" d="M240.463,123.629c-5.26-0.457-10.567,1.175-15.053,3.959
				c-0.804,0.499-1.674,1.056-2.613,0.949c-1.08-0.123-1.844-1.065-2.587-1.857c-4.073-4.344-10.599-5.652-16.496-4.812
				c-5.896,0.841-11.344,3.529-16.675,6.181c0.821-5.921,1.87-12.309,6.169-16.462c3.727-3.601,9.44-4.766,14.471-3.518
				c5.031,1.248,9.354,4.691,12.279,8.97c0.869,1.27,1.856,2.763,3.391,2.885c0.96,0.077,1.858-0.428,2.712-0.875
				c7.779-4.063,17.493-4.189,25.375-0.33s13.737,11.61,15.298,20.247C265.823,133.931,245.054,124.027,240.463,123.629z"/>
		</g>
		<path fill="#797F81" d="M351.35,101.185c-3.061-7.315-8.354-13.448-14.69-18.275c-8.911-6.072-16.892-5.285-23.645-1.464
			c20.205,8.128,16.897,30.204,16.897,30.204c-5.604-16.38-14.392-21.246-22.113-23.707c-8.415-2.681-17.145-0.465-22.175,5.009
			c-3.735,4.066-4.19,10.458-2.579,15.8c-14.052-14.968-28.886-15.765-35.217-11.403c14.069,3.063,17.373,16.155,17.373,16.155
			c-36.376-17.766-56.801,0.481-56.801,0.481s1.357-18.022,26.063-18.773c-1.347-12.804-10.185-26.594-25.236-27.529
			c-18.583-1.142-33.928,12.099-33.188,31.958c-6.645-1.483-13.541,5.75-11.757,12.317c-4.604-3.631-9.495-7.412-15.294-8.355
			c-5.799-0.931-12.678,2.09-13.879,7.841c-8.119,0.808-14.78,8.903-13.986,17.02c-10.968-10.39-28.907-12.543-42.023-5.034
			c6.323-18.98,30.68-29.473,48.836-21.053c-0.42-13.364-13.641-24.89-26.938-23.49c-13.285,1.415-23.81,15.471-21.405,28.621
			c-9.526-2.993-20.393,7.165-18.029,16.871c-3.766-12.434-18.076-15.517-26.496-13.233c11.843,3.12,16.632,17.532,15.125,27.611
			c-3.85-9.137-15.716-28.008-44.17-15.141c0.044,1.267,0.139,2.583,0.312,3.921c0.556,4.384,7.473,13.625,23.477,19.812
			c19.213,7.42,43.032,10.529,59.446-1.906c-1.245,10.708,10.741,17.624,20.755,21.554c10.666,4.153,21.547,8.359,32.964,8.852
			c11.418,0.479,23.677-3.413,30.353-12.683c9.402,16.382,33.376,22.158,49.195,11.866c9.697,13.898,28.996,20.22,45.028,14.724
			c16.026-5.47,27.422-22.284,26.574-39.21c8.909,4.867,21.718-3.473,20.866-13.606c8.72,7.935,23.78,6.083,31.765-2.589
			C354.727,125.676,355.893,112.059,351.35,101.185z"/>
	</g>
	<g clip-path="url(#SVGID_2_)">
		<path fill="#FFFFFF" stroke="#B1D4E9" stroke-miterlimit="10" d="M307.145,182.426c0.965-6.406,0.119-15.154-3.891-22.212
			c-0.279-0.477-0.559-0.954-0.838-1.431c-5.629-9.496-18.207-15.442-32.078-11.932c-3.111-7.195-10.268-12.234-18.605-12.234
			c-3.129,0-6.08,0.729-8.725,1.996c-10.861-13.485-33.76-34.583-69.5-27.254c-35.607,7.301-52.111,43.551-52.111,43.551
			c-12.365-11.472-38.035-6.538-50.549,5.369c-13.182,12.543-12.941,22.079-12.941,22.079c-8.723-5.598-22.77-0.002-25.156,8.352
			c-1.902,6.619,0.693,13.419,6.855,16.707c0.361,0.174,0.754,0.344,1.117,0.519c11.682,5.761,18.875,2.569,18.875,2.569
			c13.926,30.026,40.236,22.223,52.27,16.104c3.766-1.914,11.518-5.231,11.518-5.231s21.6,20.511,51.596,21.647
			c17.91,0.694,48.488-8.619,55.641-25.069c32.135,18.485,88.875,4.326,96.262-14.094
			C329.82,194.543,326.959,177.007,307.145,182.426z"/>
		<path fill="#797F81" d="M326.883,201.86c-7.387,18.42-64.127,32.579-96.262,14.094c-7.152,16.45-37.73,25.764-55.641,25.069
			c-29.996-1.136-51.596-21.647-51.596-21.647s-7.752,3.317-11.518,5.231c-12.033,6.119-38.344,13.922-52.27-16.104
			c0,0-7.193,3.192-18.875-2.569c-0.363-0.175-0.756-0.345-1.117-0.519c1.33-0.239,2.641-0.508,3.898-0.819
			c17.213-4.068,40.248-20.477,55.521-5.115c-0.117-11.977-12.189-20.195-23.541-18.802c5.088-7.217,15.246-10.33,23.615-7.322
			c8.555,3.051,14.451,12.199,13.752,21.238c9.883-4.75,18.283-5.888,29.02-3.98c10.738,1.924,17.775,8.636,22.193,18.625
			c-3.27-17.672-12.594-27.728-30.518-26.688c-0.592-10.099,0.523-16.962,6.613-25.053c6.072-8.104,16.887-13.066,26.641-10.402
			c9.773,2.679,16.779,14.143,13.031,23.538c1.57-2.398,7.297-3.813,10.664-1.522c2.641,1.796,3.338,6.85,2.711,8.935
			c2.689-7.813,10.861-13.362,19.117-12.974c8.273,0.386,15.893,6.673,17.865,14.697c1.348-14.974-12.859-29.354-27.83-28.202
			c20.779-11.528,48.75-3.965,51.881,19.701c8.033-26.422,43.535-21.095,49.014-11.054c4.01,7.059,5.107,16.925,3.891,22.212
			C326.959,177.007,329.82,194.543,326.883,201.86z"/>
	</g>
	<path id="XMLID_2208_" clip-path="url(#SVGID_2_)" d="M192.943,173.994c-1.306,0.173-2.46-0.359-2.974,0.235
		c-1.001,1.16,0.006,3.647,4.019,3.282c2.701-0.246,8.077-2.258,10.459-2.853c5.156-1.286,8.678-1.19,10.807,0.395
		c0,0-2.398-4.012-8.69-3.64C199.215,171.85,196.857,173.476,192.943,173.994z"/>
	<path id="XMLID_2047_" clip-path="url(#SVGID_2_)" d="M174.525,173.994c1.308,0.173,2.462-0.359,2.974,0.235
		c1.001,1.16-0.003,3.647-4.016,3.282c-2.704-0.246-8.08-2.258-10.461-2.853c-5.154-1.286-8.676-1.19-10.808,0.395
		c0,0,2.399-4.012,8.691-3.64C168.254,171.85,170.611,173.476,174.525,173.994z"/>
	<g id="XMLID_2061_" clip-path="url(#SVGID_2_)">
		<path id="XMLID_2067_" fill="#4B4A4F" d="M183.737,213.253c-7.755,0-10.725,2.488-10.725,2.488s3,5.15,10.722,5.15
			c7.724,0,10.729-5.102,10.729-5.102S191.492,213.253,183.737,213.253z"/>
		<path id="XMLID_2064_" d="M188.312,211.729c-2.008-0.536-3.616,0.41-4.577,0.41s-2.569-0.946-4.576-0.41
			c-3.92,1.045-8.229,4.604-7.654,4.907c0.352,0.244,4.734-2.629,12.23-2.38c7.499-0.25,11.88,2.624,12.23,2.38
			C196.541,216.333,192.23,212.774,188.312,211.729z"/>
		<path id="XMLID_2063_" d="M183.737,219.924c-4.843,0-7.224-0.908-7.224-0.908c0.671,1.564,2.98,2.522,7.224,2.522
			s6.553-0.958,7.224-2.522C190.961,219.017,188.581,219.924,183.737,219.924z"/>
	</g>
	<g id="XMLID_2035_" clip-path="url(#SVGID_2_)">
		<g id="XMLID_2037_">
			<path id="XMLID_2039_" fill="#4B4A4F" d="M192.23,185.91c0.194-1.108,0.605-2.177,1.017-3.098
				c1.249-2.792,5.117-6.683,12.098-4.639c4.45,1.304,6.034,4.747,6.599,7.071c0,0-1.668,3.481-9.558,4.583
				C196.121,190.701,192.23,185.91,192.23,185.91z"/>
			<path id="XMLID_2038_" d="M212.294,184.13c-0.651,0.23-1.176,1.091-4.484,2.866c-2.908,1.561-4.941,1.867-7.881,1.592
				c-2.939-0.276-4.69-1.315-6.075-2.252c-1.021-0.692-2.37-1.122-1.336,1.081c1.035,2.202,4.738,4.634,9.332,4.271
				c4.594-0.362,7.143-1.728,9.492-4.774C212.922,184.867,212.787,183.956,212.294,184.13z"/>
		</g>
		<path id="XMLID_2036_" d="M211.382,185.522c0,0,0.05,1.611,0.597,2.31c1.13,1.443,2.072,0.654,1.81,1.267
			c-0.262,0.612-2.445,1.288-4.122-0.745L211.382,185.522z"/>
	</g>
	<g id="XMLID_2018_" clip-path="url(#SVGID_2_)">
		<g id="XMLID_2022_">
			<path id="XMLID_2032_" fill="#4B4A4F" d="M175.238,185.91c-0.194-1.108-0.604-2.177-1.016-3.098
				c-1.248-2.792-5.118-6.683-12.097-4.639c-4.452,1.304-6.036,4.747-6.6,7.071c0,0,1.668,3.481,9.557,4.583
				C171.35,190.701,175.238,185.91,175.238,185.91z"/>
			<path id="XMLID_2024_" d="M155.176,184.13c0.651,0.23,1.175,1.091,4.483,2.866c2.909,1.561,4.943,1.867,7.883,1.592
				c2.938-0.276,4.689-1.315,6.073-2.252c1.024-0.692,2.372-1.122,1.337,1.081c-1.034,2.202-4.739,4.634-9.333,4.271
				c-4.594-0.362-7.14-1.728-9.49-4.774C154.549,184.867,154.682,183.956,155.176,184.13z"/>
		</g>
		<path id="XMLID_2021_" d="M156.087,185.522c0,0-0.048,1.611-0.597,2.31c-1.129,1.443-2.07,0.654-1.809,1.267
			c0.261,0.612,2.447,1.288,4.121-0.745L156.087,185.522z"/>
	</g>
</g>
</svg>
