<?xml version="1.0" encoding="UTF-8" standalone="no"?>
<svg
   xmlns:dc="http://purl.org/dc/elements/1.1/"
   xmlns:cc="http://creativecommons.org/ns#"
   xmlns:rdf="http://www.w3.org/1999/02/22-rdf-syntax-ns#"
   xmlns:svg="http://www.w3.org/2000/svg"
   xmlns="http://www.w3.org/2000/svg"
   xmlns:xlink="http://www.w3.org/1999/xlink"
   xmlns:sodipodi="http://sodipodi.sourceforge.net/DTD/sodipodi-0.dtd"
   xmlns:inkscape="http://www.inkscape.org/namespaces/inkscape"
   inkscape:version="1.0 (4035a4fb49, 2020-05-01)"
   sodipodi:docname="293.svg"
   xml:space="preserve"
   enable-background="new 0 0 360 360"
   viewBox="0 0 360 360"
   height="360px"
   width="360px"
   y="0px"
   x="0px"
   id="Capa_1"
   version="1.0"><metadata
   id="metadata527"><rdf:RDF><cc:Work
       rdf:about=""><dc:format>image/svg+xml</dc:format><dc:type
         rdf:resource="http://purl.org/dc/dcmitype/StillImage" /><dc:title></dc:title></cc:Work></rdf:RDF></metadata><defs
   id="defs525">
	<defs
   id="defs3">
		<rect
   id="SVGID_1_"
   width="360"
   height="361.142" />
	</defs>
	<clipPath
   id="SVGID_2_">
		<use
   xlink:href="#SVGID_1_"
   overflow="visible"
   id="use5" />
	</clipPath>
	
	
	
	
	
	
	
	

		
		
		
		
		
		
		
		
		
		
		
		
		
		
		
		
		
	<clipPath
   id="SVGID_2_-6"><use
     xlink:href="#SVGID_3_"
     overflow="visible"
     id="use5-2" /></clipPath><clipPath
   id="clipPath118"><use
     xlink:href="#SVGID_3_"
     overflow="visible"
     id="use116" /></clipPath><clipPath
   id="SVGID_2_-3"><use
     xlink:href="#SVGID_3_"
     overflow="visible"
     id="use5-8" /></clipPath><clipPath
   id="clipPath487"><use
     xlink:href="#SVGID_3_"
     overflow="visible"
     id="use485" /></clipPath><clipPath
   id="SVGID_2_-4"><use
     xlink:href="#SVGID_3_"
     overflow="visible"
     id="use5-27" /></clipPath><clipPath
   id="clipPath487-2"><use
     xlink:href="#SVGID_3_"
     overflow="visible"
     id="use485-8" /></clipPath><clipPath
   id="SVGID_2_-0"><use
     xlink:href="#SVGID_3_"
     overflow="visible"
     id="use5-9" /></clipPath><clipPath
   id="SVGID_2_-2"><use
     xlink:href="#SVGID_3_"
     overflow="visible"
     id="use5-4" /></clipPath><rect
   height="361.141"
   width="360"
   y="-0.57"
   id="SVGID_3_" /></defs><sodipodi:namedview
   inkscape:current-layer="Capa_1"
   inkscape:window-maximized="1"
   inkscape:window-y="-8"
   inkscape:window-x="-8"
   inkscape:cy="149.08378"
   inkscape:cx="-93.914986"
   inkscape:zoom="1.8101934"
   showgrid="false"
   id="namedview523"
   inkscape:window-height="1017"
   inkscape:window-width="1920"
   inkscape:pageshadow="2"
   inkscape:pageopacity="0"
   guidetolerance="10"
   gridtolerance="10"
   objecttolerance="10"
   borderopacity="1"
   bordercolor="#666666"
   pagecolor="#ffffff"
   inkscape:document-rotation="0" />
<g
   id="g114">
			<g
   id="g88">
				<path
   id="path86"
   d="m 110.112,117.82 c -0.829,0 -1.5,-0.671 -1.5,-1.5 v -10 c 0,-0.829 0.671,-1.5 1.5,-1.5 0.829,0 1.5,0.671 1.5,1.5 v 10 c 0,0.829 -0.671,1.5 -1.5,1.5 z"
   fill="#a0cdd3" />
			</g>
			<g
   id="g92">
				<path
   id="path90"
   d="m 110.112,171.654 c -0.829,0 -1.5,-0.671 -1.5,-1.5 V 138.82 c 0,-0.829 0.671,-1.5 1.5,-1.5 0.829,0 1.5,0.671 1.5,1.5 v 31.333 c 0,0.829 -0.671,1.501 -1.5,1.501 z"
   fill="#a0cdd3" />
			</g>
			<g
   id="g96">
				<path
   id="path94"
   d="m 110.112,199.654 c -0.829,0 -1.5,-0.671 -1.5,-1.5 v -12 c 0,-0.829 0.671,-1.5 1.5,-1.5 0.829,0 1.5,0.671 1.5,1.5 v 12 c 0,0.828 -0.671,1.5 -1.5,1.5 z"
   fill="#a0cdd3" />
			</g>
			<g
   id="g100">
				<path
   id="path98"
   d="m 110.112,254.32 c -0.829,0 -1.5,-0.672 -1.5,-1.5 v -33.333 c 0,-0.828 0.671,-1.5 1.5,-1.5 0.829,0 1.5,0.672 1.5,1.5 v 33.333 c 0,0.828 -0.671,1.5 -1.5,1.5 z"
   fill="#a0cdd3" />
			</g>
			<g
   id="g104">
				<path
   id="path102"
   d="m 110.112,362.655 c -0.829,0 -1.5,-0.672 -1.5,-1.5 v -14 c 0,-0.828 0.671,-1.5 1.5,-1.5 0.829,0 1.5,0.672 1.5,1.5 v 14 c 0,0.828 -0.671,1.5 -1.5,1.5 z"
   fill="#a0cdd3" />
			</g>
			<g
   id="g108">
				<path
   id="path106"
   d="m 110.112,98.654 c -0.829,0 -1.5,-0.671 -1.5,-1.5 v -14 c 0,-0.829 0.671,-1.5 1.5,-1.5 0.829,0 1.5,0.671 1.5,1.5 v 14 c 0,0.828 -0.671,1.5 -1.5,1.5 z"
   fill="#a0cdd3" />
			</g>
			<g
   id="g112">
				<path
   id="path110"
   d="m 110.112,328.987 c -0.829,0 -1.5,-0.672 -1.5,-1.5 v -45.333 c 0,-0.828 0.671,-1.5 1.5,-1.5 0.829,0 1.5,0.672 1.5,1.5 v 45.333 c 0,0.828 -0.671,1.5 -1.5,1.5 z"
   fill="#a0cdd3" />
			</g>
		</g><g
   id="g140">
			<g
   id="g118">
				<path
   id="path116"
   d="m 128.195,179.805 c -0.828,0 -1.5,-0.671 -1.5,-1.5 v -39.03 c 0,-0.829 0.672,-1.5 1.5,-1.5 0.829,0 1.5,0.671 1.5,1.5 v 39.03 c 0,0.828 -0.671,1.5 -1.5,1.5 z"
   fill="#a0cdd3" />
			</g>
			<g
   id="g122">
				<path
   id="path120"
   d="m 128.195,128.458 c -0.828,0 -1.5,-0.671 -1.5,-1.5 V 87.927 c 0,-0.829 0.672,-1.5 1.5,-1.5 0.829,0 1.5,0.671 1.5,1.5 v 39.031 c 0,0.828 -0.671,1.5 -1.5,1.5 z"
   fill="#a0cdd3" />
			</g>
			<g
   id="g126">
				<path
   id="path124"
   d="m 128.195,231.633 c -0.828,0 -1.5,-0.672 -1.5,-1.5 v -21.755 c 0,-0.829 0.672,-1.5 1.5,-1.5 0.829,0 1.5,0.671 1.5,1.5 v 21.755 c 0,0.828 -0.671,1.5 -1.5,1.5 z"
   fill="#a0cdd3" />
			</g>
			<g
   id="g130">
				<path
   id="path128"
   d="m 128.195,324.411 c -0.828,0 -1.5,-0.672 -1.5,-1.5 v -9.598 c 0,-0.828 0.672,-1.5 1.5,-1.5 0.829,0 1.5,0.672 1.5,1.5 v 9.598 c 0,0.828 -0.671,1.5 -1.5,1.5 z"
   fill="#a0cdd3" />
			</g>
			<g
   id="g134">
				<path
   id="path132"
   d="m 128.195,360.881 c -0.828,0 -1.5,-0.672 -1.5,-1.5 v -16.637 c 0,-0.828 0.672,-1.5 1.5,-1.5 0.829,0 1.5,0.672 1.5,1.5 v 16.637 c 0,0.828 -0.671,1.5 -1.5,1.5 z"
   fill="#a0cdd3" />
			</g>
			<g
   id="g138">
				<path
   id="path136"
   d="m 128.195,294.817 c -0.828,0 -1.5,-0.672 -1.5,-1.5 v -43.51 c 0,-0.828 0.672,-1.5 1.5,-1.5 0.829,0 1.5,0.672 1.5,1.5 v 43.51 c 0,0.829 -0.671,1.5 -1.5,1.5 z"
   fill="#a0cdd3" />
			</g>
		</g><g
   id="g200">
			<g
   id="g170">
				<path
   id="path168"
   d="m 243.916,325.655 c -0.829,0 -1.5,-0.672 -1.5,-1.5 v -40.667 c 0,-0.828 0.671,-1.5 1.5,-1.5 0.828,0 1.5,0.672 1.5,1.5 v 40.667 c 0,0.828 -0.672,1.5 -1.5,1.5 z"
   fill="#a0cdd3" />
			</g>
			<g
   id="g174">
				<path
   id="path172"
   d="m 243.916,235.654 c -0.829,0 -1.5,-0.672 -1.5,-1.5 V 216.82 c 0,-0.828 0.671,-1.5 1.5,-1.5 0.828,0 1.5,0.672 1.5,1.5 v 17.334 c 0,0.828 -0.672,1.5 -1.5,1.5 z"
   fill="#a0cdd3" />
			</g>
			<g
   id="g178">
				<path
   id="path176"
   d="m 243.916,136.154 c -0.829,0 -1.5,-0.671 -1.5,-1.5 V 117.32 c 0,-0.829 0.671,-1.5 1.5,-1.5 0.828,0 1.5,0.671 1.5,1.5 v 17.333 c 0,0.829 -0.672,1.501 -1.5,1.501 z"
   fill="#a0cdd3" />
			</g>
			<g
   id="g182">
				<path
   id="path180"
   d="m 243.916,264.654 c -0.829,0 -1.5,-0.672 -1.5,-1.5 V 245.82 c 0,-0.828 0.671,-1.5 1.5,-1.5 0.828,0 1.5,0.672 1.5,1.5 v 17.334 c 0,0.828 -0.672,1.5 -1.5,1.5 z"
   fill="#a0cdd3" />
			</g>
			<g
   id="g186">
				<path
   id="path184"
   d="m 243.916,206.82 c -0.829,0 -1.5,-0.671 -1.5,-1.5 v -10 c 0,-0.829 0.671,-1.5 1.5,-1.5 0.828,0 1.5,0.671 1.5,1.5 v 10 c 0,0.829 -0.672,1.5 -1.5,1.5 z"
   fill="#a0cdd3" />
			</g>
			<g
   id="g190">
				<path
   id="path188"
   d="m 243.916,103.487 c -0.829,0 -1.5,-0.671 -1.5,-1.5 v -10 c 0,-0.829 0.671,-1.5 1.5,-1.5 0.828,0 1.5,0.671 1.5,1.5 v 10 c 0,0.829 -0.672,1.5 -1.5,1.5 z"
   fill="#a0cdd3" />
			</g>
			<g
   id="g194">
				<path
   id="path192"
   d="m 243.916,187.32 c -0.829,0 -1.5,-0.671 -1.5,-1.5 v -35.333 c 0,-0.829 0.671,-1.5 1.5,-1.5 0.828,0 1.5,0.671 1.5,1.5 v 35.333 c 0,0.829 -0.672,1.5 -1.5,1.5 z"
   fill="#a0cdd3" />
			</g>
			<g
   id="g198">
				<path
   id="path196"
   d="m 243.916,349.155 c -0.829,0 -1.5,-0.672 -1.5,-1.5 v -14 c 0,-0.828 0.671,-1.5 1.5,-1.5 0.828,0 1.5,0.672 1.5,1.5 v 14 c 0,0.828 -0.672,1.5 -1.5,1.5 z"
   fill="#a0cdd3" />
			</g>
		</g><g
   id="g230">
			<g
   id="g204">
				<path
   id="path202"
   d="m 204.244,157.82 c -0.828,0 -1.5,-0.671 -1.5,-1.5 v -10 c 0,-0.829 0.672,-1.5 1.5,-1.5 0.828,0 1.5,0.671 1.5,1.5 v 10 c 0,0.829 -0.672,1.5 -1.5,1.5 z"
   fill="#a0cdd3" />
			</g>
			<g
   id="g208">
				<path
   id="path206"
   d="m 204.244,108.487 c -0.828,0 -1.5,-0.671 -1.5,-1.5 v -10 c 0,-0.829 0.672,-1.5 1.5,-1.5 0.828,0 1.5,0.671 1.5,1.5 v 10 c 0,0.829 -0.672,1.5 -1.5,1.5 z"
   fill="#a0cdd3" />
			</g>
			<g
   id="g212">
				<path
   id="path210"
   d="m 204.244,338.321 c -0.828,0 -1.5,-0.672 -1.5,-1.5 v -22.666 c 0,-0.829 0.672,-1.5 1.5,-1.5 0.828,0 1.5,0.672 1.5,1.5 v 22.666 c 0,0.828 -0.672,1.5 -1.5,1.5 z"
   fill="#a0cdd3" />
			</g>
			<g
   id="g216">
				<path
   id="path214"
   d="m 204.244,136.32 c -0.828,0 -1.5,-0.671 -1.5,-1.5 v -17.333 c 0,-0.829 0.672,-1.5 1.5,-1.5 0.828,0 1.5,0.671 1.5,1.5 v 17.333 c 0,0.829 -0.672,1.5 -1.5,1.5 z"
   fill="#a0cdd3" />
			</g>
			<g
   id="g220">
				<path
   id="path218"
   d="m 204.244,204.32 c -0.828,0 -1.5,-0.671 -1.5,-1.5 v -35.333 c 0,-0.829 0.672,-1.5 1.5,-1.5 0.828,0 1.5,0.671 1.5,1.5 v 35.333 c 0,0.829 -0.672,1.5 -1.5,1.5 z"
   fill="#a0cdd3" />
			</g>
			<g
   id="g224">
				<path
   id="path222"
   d="m 204.244,237.654 c -0.828,0 -1.5,-0.672 -1.5,-1.5 v -14 c 0,-0.828 0.672,-1.5 1.5,-1.5 0.828,0 1.5,0.672 1.5,1.5 v 14 c 0,0.828 -0.672,1.5 -1.5,1.5 z"
   fill="#a0cdd3" />
			</g>
			<g
   id="g228">
				<path
   id="path226"
   d="m 204.244,294.987 c -0.828,0 -1.5,-0.672 -1.5,-1.5 V 256.82 c 0,-0.828 0.672,-1.5 1.5,-1.5 0.828,0 1.5,0.672 1.5,1.5 v 36.667 c 0,0.828 -0.672,1.5 -1.5,1.5 z"
   fill="#a0cdd3" />
			</g>
		</g><g
   id="g264">
			<g
   id="g234">
				<path
   id="path232"
   d="m 147.744,122.82 c -0.828,0 -1.5,-0.671 -1.5,-1.5 v -10 c 0,-0.829 0.672,-1.5 1.5,-1.5 0.828,0 1.5,0.671 1.5,1.5 v 10 c 0,0.829 -0.672,1.5 -1.5,1.5 z"
   fill="#a0cdd3" />
			</g>
			<g
   id="g238">
				<path
   id="path236"
   d="m 147.744,300.32 c -0.828,0 -1.5,-0.672 -1.5,-1.5 v -22.666 c 0,-0.828 0.672,-1.5 1.5,-1.5 0.828,0 1.5,0.672 1.5,1.5 v 22.666 c 0,0.828 -0.672,1.5 -1.5,1.5 z"
   fill="#a0cdd3" />
			</g>
			<g
   id="g242">
				<path
   id="path240"
   d="m 147.744,101.32 c -0.828,0 -1.5,-0.671 -1.5,-1.5 V 82.487 c 0,-0.829 0.672,-1.5 1.5,-1.5 0.828,0 1.5,0.671 1.5,1.5 V 99.82 c 0,0.829 -0.672,1.5 -1.5,1.5 z"
   fill="#a0cdd3" />
			</g>
			<g
   id="g246">
				<path
   id="path244"
   d="m 147.744,378.821 c -0.828,0 -1.5,-0.672 -1.5,-1.5 v -17.334 c 0,-0.828 0.672,-1.5 1.5,-1.5 0.828,0 1.5,0.672 1.5,1.5 v 17.334 c 0,0.828 -0.672,1.5 -1.5,1.5 z"
   fill="#a0cdd3" />
			</g>
			<g
   id="g250">
				<path
   id="path248"
   d="m 147.744,169.32 c -0.828,0 -1.5,-0.671 -1.5,-1.5 v -35.333 c 0,-0.829 0.672,-1.5 1.5,-1.5 0.828,0 1.5,0.671 1.5,1.5 v 35.333 c 0,0.829 -0.672,1.5 -1.5,1.5 z"
   fill="#a0cdd3" />
			</g>
			<g
   id="g254">
				<path
   id="path252"
   d="m 147.744,202.654 c -0.828,0 -1.5,-0.671 -1.5,-1.5 v -14 c 0,-0.829 0.672,-1.5 1.5,-1.5 0.828,0 1.5,0.671 1.5,1.5 v 14 c 0,0.828 -0.672,1.5 -1.5,1.5 z"
   fill="#a0cdd3" />
			</g>
			<g
   id="g258">
				<path
   id="path256"
   d="m 147.744,259.987 c -0.828,0 -1.5,-0.672 -1.5,-1.5 V 221.82 c 0,-0.828 0.672,-1.5 1.5,-1.5 0.828,0 1.5,0.672 1.5,1.5 v 36.667 c 0,0.828 -0.672,1.5 -1.5,1.5 z"
   fill="#a0cdd3" />
			</g>
			<g
   id="g262">
				<path
   id="path260"
   d="m 147.744,349.987 c -0.828,0 -1.5,-0.672 -1.5,-1.5 V 311.82 c 0,-0.828 0.672,-1.5 1.5,-1.5 0.828,0 1.5,0.672 1.5,1.5 v 36.667 c 0,0.828 -0.672,1.5 -1.5,1.5 z"
   fill="#a0cdd3" />
			</g>
		</g><g
   id="g290">
			<g
   id="g268">
				<path
   id="path266"
   d="m 262.195,165.47 c -0.828,0 -1.5,-0.671 -1.5,-1.5 v -16.675 c 0,-0.829 0.672,-1.5 1.5,-1.5 0.829,0 1.5,0.671 1.5,1.5 v 16.675 c 0,0.828 -0.671,1.5 -1.5,1.5 z"
   fill="#a0cdd3" />
			</g>
			<g
   id="g272">
				<path
   id="path270"
   d="m 262.195,102.938 c -0.828,0 -1.5,-0.671 -1.5,-1.5 V 84.764 c 0,-0.829 0.672,-1.5 1.5,-1.5 0.829,0 1.5,0.671 1.5,1.5 v 16.675 c 0,0.828 -0.671,1.499 -1.5,1.499 z"
   fill="#a0cdd3" />
			</g>
			<g
   id="g276">
				<path
   id="path274"
   d="m 262.195,134.845 c -0.828,0 -1.5,-0.671 -1.5,-1.5 V 116.67 c 0,-0.829 0.672,-1.5 1.5,-1.5 0.829,0 1.5,0.671 1.5,1.5 v 16.675 c 0,0.829 -0.671,1.5 -1.5,1.5 z"
   fill="#a0cdd3" />
			</g>
			<g
   id="g280">
				<path
   id="path278"
   d="m 262.195,271.612 c -0.828,0 -1.5,-0.672 -1.5,-1.5 v -33.991 c 0,-0.828 0.672,-1.5 1.5,-1.5 0.829,0 1.5,0.672 1.5,1.5 v 33.991 c 0,0.828 -0.671,1.5 -1.5,1.5 z"
   fill="#a0cdd3" />
			</g>
			<g
   id="g284">
				<path
   id="path282"
   d="m 262.195,222.068 c -0.828,0 -1.5,-0.672 -1.5,-1.5 v -43.611 c 0,-0.829 0.672,-1.5 1.5,-1.5 0.829,0 1.5,0.671 1.5,1.5 v 43.611 c 0,0.828 -0.671,1.5 -1.5,1.5 z"
   fill="#a0cdd3" />
			</g>
			<g
   id="g288">
				<path
   id="path286"
   d="m 262.195,328.211 c -0.828,0 -1.5,-0.672 -1.5,-1.5 V 283.1 c 0,-0.828 0.672,-1.5 1.5,-1.5 0.829,0 1.5,0.672 1.5,1.5 v 43.612 c 0,0.828 -0.671,1.499 -1.5,1.499 z"
   fill="#a0cdd3" />
			</g>
		</g><g
   id="g320">
			<g
   id="g294">
				<path
   id="path292"
   d="m 185.721,88.82 c -0.828,0 -1.5,-0.671 -1.5,-1.5 v -10 c 0,-0.829 0.672,-1.5 1.5,-1.5 0.829,0 1.5,0.671 1.5,1.5 v 10 c 0,0.829 -0.671,1.5 -1.5,1.5 z"
   fill="#a0cdd3" />
			</g>
			<g
   id="g298">
				<path
   id="path296"
   d="m 185.721,179.32 c -0.828,0 -1.5,-0.671 -1.5,-1.5 v -31.333 c 0,-0.829 0.672,-1.5 1.5,-1.5 0.829,0 1.5,0.671 1.5,1.5 v 31.333 c 0,0.829 -0.671,1.5 -1.5,1.5 z"
   fill="#a0cdd3" />
			</g>
			<g
   id="g302">
				<path
   id="path300"
   d="m 185.721,208.32 c -0.828,0 -1.5,-0.671 -1.5,-1.5 v -12 c 0,-0.829 0.672,-1.5 1.5,-1.5 0.829,0 1.5,0.671 1.5,1.5 v 12 c 0,0.829 -0.671,1.5 -1.5,1.5 z"
   fill="#a0cdd3" />
			</g>
			<g
   id="g306">
				<path
   id="path304"
   d="m 185.721,258.654 c -0.828,0 -1.5,-0.672 -1.5,-1.5 V 223.82 c 0,-0.828 0.672,-1.5 1.5,-1.5 0.829,0 1.5,0.672 1.5,1.5 v 33.334 c 0,0.828 -0.671,1.5 -1.5,1.5 z"
   fill="#a0cdd3" />
			</g>
			<g
   id="g310">
				<path
   id="path308"
   d="m 185.721,134.32 c -0.828,0 -1.5,-0.671 -1.5,-1.5 V 99.487 c 0,-0.829 0.672,-1.5 1.5,-1.5 0.829,0 1.5,0.671 1.5,1.5 v 33.333 c 0,0.829 -0.671,1.5 -1.5,1.5 z"
   fill="#a0cdd3" />
			</g>
			<g
   id="g314">
				<path
   id="path312"
   d="m 185.721,362.655 c -0.828,0 -1.5,-0.672 -1.5,-1.5 v -14 c 0,-0.828 0.672,-1.5 1.5,-1.5 0.829,0 1.5,0.672 1.5,1.5 v 14 c 0,0.828 -0.671,1.5 -1.5,1.5 z"
   fill="#a0cdd3" />
			</g>
			<g
   id="g318">
				<path
   id="path316"
   d="m 185.721,328.987 c -0.828,0 -1.5,-0.672 -1.5,-1.5 v -45.333 c 0,-0.828 0.672,-1.5 1.5,-1.5 0.829,0 1.5,0.672 1.5,1.5 v 45.333 c 0,0.828 -0.671,1.5 -1.5,1.5 z"
   fill="#a0cdd3" />
			</g>
		</g><g
   id="g350">
			<g
   id="g324">
				<path
   id="path322"
   d="m 167.638,179.805 c -0.829,0 -1.5,-0.671 -1.5,-1.5 v -39.03 c 0,-0.829 0.671,-1.5 1.5,-1.5 0.829,0 1.5,0.671 1.5,1.5 v 39.03 c 0,0.828 -0.671,1.5 -1.5,1.5 z"
   fill="#a0cdd3" />
			</g>
			<g
   id="g328">
				<path
   id="path326"
   d="m 167.638,128.458 c -0.829,0 -1.5,-0.671 -1.5,-1.5 V 87.927 c 0,-0.829 0.671,-1.5 1.5,-1.5 0.829,0 1.5,0.671 1.5,1.5 v 39.031 c 0,0.828 -0.671,1.5 -1.5,1.5 z"
   fill="#a0cdd3" />
			</g>
			<g
   id="g332">
				<path
   id="path330"
   d="m 167.638,231.633 c -0.829,0 -1.5,-0.672 -1.5,-1.5 v -21.755 c 0,-0.829 0.671,-1.5 1.5,-1.5 0.829,0 1.5,0.671 1.5,1.5 v 21.755 c 0,0.828 -0.671,1.5 -1.5,1.5 z"
   fill="#a0cdd3" />
			</g>
			<g
   id="g336">
				<path
   id="path334"
   d="m 167.638,79.632 c -0.829,0 -1.5,-0.671 -1.5,-1.5 V 56.377 c 0,-0.829 0.671,-1.5 1.5,-1.5 0.829,0 1.5,0.671 1.5,1.5 v 21.755 c 0,0.829 -0.671,1.5 -1.5,1.5 z"
   fill="#a0cdd3" />
			</g>
			<g
   id="g340">
				<path
   id="path338"
   d="m 167.638,324.411 c -0.829,0 -1.5,-0.672 -1.5,-1.5 v -9.598 c 0,-0.828 0.671,-1.5 1.5,-1.5 0.829,0 1.5,0.672 1.5,1.5 v 9.598 c 0,0.828 -0.671,1.5 -1.5,1.5 z"
   fill="#a0cdd3" />
			</g>
			<g
   id="g344">
				<path
   id="path342"
   d="m 167.638,360.881 c -0.829,0 -1.5,-0.672 -1.5,-1.5 v -16.637 c 0,-0.828 0.671,-1.5 1.5,-1.5 0.829,0 1.5,0.672 1.5,1.5 v 16.637 c 0,0.828 -0.671,1.5 -1.5,1.5 z"
   fill="#a0cdd3" />
			</g>
			<g
   id="g348">
				<path
   id="path346"
   d="m 167.638,294.817 c -0.829,0 -1.5,-0.672 -1.5,-1.5 v -43.51 c 0,-0.828 0.671,-1.5 1.5,-1.5 0.829,0 1.5,0.672 1.5,1.5 v 43.51 c 0,0.829 -0.671,1.5 -1.5,1.5 z"
   fill="#a0cdd3" />
			</g>
		</g><g
   id="g376">
			<g
   id="g354">
				<path
   id="path352"
   d="m 223.749,257.654 c -0.829,0 -1.5,-0.672 -1.5,-1.5 V 224.82 c 0,-0.828 0.671,-1.5 1.5,-1.5 0.829,0 1.5,0.672 1.5,1.5 v 31.334 c 0,0.828 -0.671,1.5 -1.5,1.5 z"
   fill="#a0cdd3" />
			</g>
			<g
   id="g358">
				<path
   id="path356"
   d="m 223.749,291.154 c -0.829,0 -1.5,-0.672 -1.5,-1.5 v -14 c 0,-0.828 0.671,-1.5 1.5,-1.5 0.829,0 1.5,0.672 1.5,1.5 v 14 c 0,0.828 -0.671,1.5 -1.5,1.5 z"
   fill="#a0cdd3" />
			</g>
			<g
   id="g362">
				<path
   id="path360"
   d="m 223.749,353.987 c -0.829,0 -1.5,-0.672 -1.5,-1.5 v -36.666 c 0,-0.828 0.671,-1.5 1.5,-1.5 0.829,0 1.5,0.672 1.5,1.5 v 36.666 c 0,0.828 -0.671,1.5 -1.5,1.5 z"
   fill="#a0cdd3" />
			</g>
			<g
   id="g366">
				<path
   id="path364"
   d="m 223.749,175.987 c -0.829,0 -1.5,-0.671 -1.5,-1.5 v -45.333 c 0,-0.829 0.671,-1.5 1.5,-1.5 0.829,0 1.5,0.671 1.5,1.5 v 45.333 c 0,0.829 -0.671,1.5 -1.5,1.5 z"
   fill="#a0cdd3" />
			</g>
			<g
   id="g370">
				<path
   id="path368"
   d="m 223.749,207.32 c -0.829,0 -1.5,-0.671 -1.5,-1.5 v -19.333 c 0,-0.829 0.671,-1.5 1.5,-1.5 0.829,0 1.5,0.671 1.5,1.5 v 19.333 c 0,0.829 -0.671,1.5 -1.5,1.5 z"
   fill="#a0cdd3" />
			</g>
			<g
   id="g374">
				<path
   id="path372"
   d="m 223.749,117.32 c -0.829,0 -1.5,-0.671 -1.5,-1.5 V 96.487 c 0,-0.829 0.671,-1.5 1.5,-1.5 0.829,0 1.5,0.671 1.5,1.5 v 19.333 c 0,0.829 -0.671,1.5 -1.5,1.5 z"
   fill="#a0cdd3" />
			</g>
		</g><g
   clip-path="url(#SVGID_2_)"
   id="g496"
   transform="matrix(1.0288329,0,0,1.0202709,-5.1899862,-2.5930604)">
		<g
   id="g492">
			<path
   fill="#ffffff"
   stroke="#b1d4e9"
   stroke-miterlimit="10"
   d="m 6.021,123.616 c 0.044,1.267 0.139,2.583 0.312,3.921 0.556,4.384 7.473,13.625 23.477,19.812 19.213,7.42 43.032,10.529 59.446,-1.906 -1.245,10.708 10.741,17.624 20.755,21.554 10.666,4.153 21.547,8.359 32.964,8.852 11.418,0.479 23.677,-3.413 30.353,-12.683 9.402,16.382 33.376,22.158 49.195,11.866 9.697,13.898 28.996,20.22 45.028,14.724 16.026,-5.47 27.422,-22.284 26.574,-39.21 8.909,4.867 21.718,-3.473 20.866,-13.606 8.72,7.935 23.78,6.083 31.765,-2.589 7.971,-8.674 9.137,-22.292 4.594,-33.165 -3.061,-7.315 -8.354,-13.448 -14.69,-18.275 0.225,-2.688 0.008,-5.419 -0.638,-8.041 -0.648,-2.594 -1.729,-5.062 -3.248,-7.269 -5.929,-8.614 -18.021,-12.341 -27.78,-8.598 3.924,-12.221 -5.727,-26.793 -18.499,-27.959 -12.358,-1.127 -24.082,10.612 -23.343,22.908 -0.604,-5.624 -5.205,-9.921 -9.851,-13.238 -10.877,-7.771 -20.069,-0.697 -22.189,0.152 C 227.991,25.76 213.733,14.191 192.829,14.802 171.941,15.401 158.676,29.253 157.703,42.991 152.715,35.886 141.891,33.696 134.53,38.303 127.194,42.928 124.439,53.621 128.687,61.2 116.263,49.403 96.926,45.502 80.908,51.554 64.874,57.605 52.955,73.325 51.442,90.391 37.094,85.985 5.156,94.721 6.021,123.616 Z"
   id="path488" />
			<path
   fill="#ffffff"
   stroke="#b1d4e9"
   stroke-miterlimit="10"
   d="m 240.463,123.629 c -5.26,-0.457 -10.567,1.175 -15.053,3.959 -0.804,0.499 -1.674,1.056 -2.613,0.949 -1.08,-0.123 -1.844,-1.065 -2.587,-1.857 -4.073,-4.344 -10.599,-5.652 -16.496,-4.812 -5.896,0.841 -11.344,3.529 -16.675,6.181 0.821,-5.921 1.87,-12.309 6.169,-16.462 3.727,-3.601 9.44,-4.766 14.471,-3.518 5.031,1.248 9.354,4.691 12.279,8.97 0.869,1.27 1.856,2.763 3.391,2.885 0.96,0.077 1.858,-0.428 2.712,-0.875 7.779,-4.063 17.493,-4.189 25.375,-0.33 7.882,3.859 13.737,11.61 15.298,20.247 -0.911,-5.035 -21.68,-14.939 -26.271,-15.337 z"
   id="path490" />
		</g>
		<path
   fill="#797f81"
   d="m 351.35,101.185 c -3.061,-7.315 -8.354,-13.448 -14.69,-18.275 -8.911,-6.072 -16.892,-5.285 -23.645,-1.464 20.205,8.128 16.897,30.204 16.897,30.204 -5.604,-16.38 -14.392,-21.246 -22.113,-23.707 -8.415,-2.681 -17.145,-0.465 -22.175,5.009 -3.735,4.066 -4.19,10.458 -2.579,15.8 -14.052,-14.968 -28.886,-15.765 -35.217,-11.403 14.069,3.063 17.373,16.155 17.373,16.155 -36.376,-17.766 -56.801,0.481 -56.801,0.481 0,0 1.357,-18.022 26.063,-18.773 -1.347,-12.804 -10.185,-26.594 -25.236,-27.529 -18.583,-1.142 -33.928,12.099 -33.188,31.958 -6.645,-1.483 -13.541,5.75 -11.757,12.317 -4.604,-3.631 -9.495,-7.412 -15.294,-8.355 -5.799,-0.931 -12.678,2.09 -13.879,7.841 -8.119,0.808 -14.78,8.903 -13.986,17.02 -10.968,-10.39 -28.907,-12.543 -42.023,-5.034 6.323,-18.98 30.68,-29.473 48.836,-21.053 -0.42,-13.364 -13.641,-24.89 -26.938,-23.49 -13.285,1.415 -23.81,15.471 -21.405,28.621 -9.526,-2.993 -20.393,7.165 -18.029,16.871 -3.766,-12.434 -18.076,-15.517 -26.496,-13.233 11.843,3.12 16.632,17.532 15.125,27.611 -3.85,-9.137 -15.716,-28.008 -44.17,-15.141 0.044,1.267 0.139,2.583 0.312,3.921 0.556,4.384 7.473,13.625 23.477,19.812 19.213,7.42 43.032,10.529 59.446,-1.906 -1.245,10.708 10.741,17.624 20.755,21.554 10.666,4.153 21.547,8.359 32.964,8.852 11.418,0.479 23.677,-3.413 30.353,-12.683 9.402,16.382 33.376,22.158 49.195,11.866 9.697,13.898 28.996,20.22 45.028,14.724 16.026,-5.47 27.422,-22.284 26.574,-39.21 8.909,4.867 21.718,-3.473 20.866,-13.606 8.72,7.935 23.78,6.083 31.765,-2.589 7.969,-8.675 9.135,-22.292 4.592,-33.166 z"
   id="path494" />
	</g><path
   d="m 179.26939,34.545549 a 69.294931,69.294931 0 0 0 -2.92694,-0.709343 69.294931,69.294931 0 0 0 -65.41794,20.30184 54.839211,54.839211 0 0 1 39.97194,-6.54164 54.839211,54.839211 0 0 1 41.97531,64.520794 l -0.75313,3.19579 a 54.839211,54.839211 0 0 1 -66.33753,39.03524 54.839211,54.839211 0 0 1 -16.3562,-7.09725 69.294931,69.294931 0 0 0 35.18324,21.47776 69.294931,69.294931 0 0 0 83.82462,-49.32678 l 0.95074,-4.04076 A 69.294931,69.294931 0 0 0 179.26939,34.545549 Z"
   style="fill:#afafe9;fill-opacity:1;stroke:none;stroke-width:9.25166"
   id="path3137" /><path
   style="stroke-width:0.397944"
   id="XMLID_3027_-1"
   fill="#ffffff"
   d="m 216.21948,88.406907 c 0,0 0.2129,-3.924123 3.8123,-4.922962 3.5994,-0.99844 5.92379,1.885458 5.92379,1.885458 0,0 0.0251,3.739477 -3.9078,4.838996 -3.66069,1.023909 -5.82829,-1.801492 -5.82829,-1.801492 z" /><path
   style="stroke-width:0.397944;fill:#e9afaf"
   id="XMLID_3021_-4"
   fill="#c19a31"
   d="m 216.06667,88.21669 c 0,0 -0.80424,-2.462476 -0.30403,-4.013262 0.49942,-1.550389 2.70562,-4.115932 6.52151,-3.435051 3.81508,0.680484 4.20029,4.554466 4.20029,4.554466 0,0 -2.33633,-2.877929 -6.45226,-1.839296 -3.26911,0.825336 -3.96551,4.733143 -3.96551,4.733143 z" /><path
   style="stroke-width:0.397944"
   id="XMLID_3020_-2"
   d="m 216.21948,88.406907 c 0.25548,0.06805 0.34462,-1.794726 1.83174,-3.134205 1.15921,-1.045796 3.49156,-1.699617 5.29504,-0.997247 1.58819,0.619201 2.12143,1.396385 2.12143,1.396385 0,0 -0.0772,1.760105 -1.44055,3.154102 -1.15245,1.178709 -2.64076,1.419863 -2.56316,1.51736 0.15162,0.186237 1.66102,-0.09949 2.95871,-1.160404 1.03943,-0.850804 2.03151,-2.318819 2.06215,-3.859259 -0.15042,-0.899353 -2.86042,-2.89703 -5.56485,-2.367367 -2.70442,0.529663 -4.00291,1.994494 -4.48323,3.356257 -0.48032,1.360172 -0.48669,2.022748 -0.21728,2.094378 z" /><circle
   style="stroke-width:0.397944;fill:#afe9c6"
   id="XMLID_3018_-1"
   fill="#f5eb23"
   cx="220.54991"
   cy="87.29306"
   r="2.8198292" /><circle
   style="stroke-width:0.397944"
   id="XMLID_3017_-4"
   cx="220.55031"
   cy="87.29306"
   r="1.3852421" /><path
   style="stroke-width:0.397944"
   id="XMLID_3015_-0"
   fill="#ffffff"
   d="m 220.95859,86.445841 c 0,-0.375659 0.30443,-0.680882 0.67969,-0.680882 0.37686,0 0.68049,0.305223 0.68049,0.680882 0,0.375658 -0.30363,0.680483 -0.68049,0.680483 -0.37566,0 -0.67969,-0.304825 -0.67969,-0.680483 z" /><path
   style="stroke-width:0.397944"
   d="m 214.58632,81.926394 c -0.64626,0.301243 -1.32953,0.213297 -1.49865,0.604874 -0.32751,0.761266 0.59452,1.882672 2.60971,1.043409 1.35699,-0.565479 3.80713,-2.478394 4.94167,-3.172806 2.45531,-1.500646 4.29062,-2.022748 5.6496,-1.549593 0,0 -1.89182,-1.684098 -5.08253,-0.469971 -3.72675,1.418271 -4.68062,2.640754 -6.6198,3.544087 z"
   id="XMLID_3011_-3" /><path
   style="stroke-width:0.397944"
   id="XMLID_3010_-1"
   fill="#ffffff"
   d="m 205.1853,87.856551 c 0,0 -0.63671,-3.877962 -4.32286,-4.481244 -3.68616,-0.603283 -5.68503,2.514606 -5.68503,2.514606 0,0 0.37924,3.720774 4.40962,4.388524 3.74982,0.620792 5.59827,-2.421886 5.59827,-2.421886 z" /><path
   style="stroke-width:0.397944;fill:#e9afaf"
   id="XMLID_3000_-7"
   fill="#c19a31"
   d="m 205.31702,87.652406 c 0,0 0.3279,-1.873121 -0.33666,-3.361033 -0.66576,-1.487116 -3.04268,-3.617706 -6.76226,-2.528534 -3.71918,1.088774 -3.57115,4.138217 -3.57115,4.138217 0,0 1.4907,-2.627623 5.69537,-2.040258 3.33835,0.467584 4.9747,3.791608 4.9747,3.791608 z" /><circle
   style="stroke-width:0.397944;fill:#afe9c6"
   id="XMLID_2999_-3"
   fill="#f5eb23"
   cx="200.74982"
   cy="87.29306"
   r="2.8198292" /><circle
   style="stroke-width:0.397944"
   id="XMLID_2998_-6"
   cx="200.75021"
   cy="87.29306"
   r="1.3852421" /><circle
   style="stroke-width:0.397944"
   id="XMLID_2997_-4"
   fill="#ffffff"
   cx="199.66183"
   cy="86.445839"
   r="0.68048382" /><path
   style="stroke-width:0.397944"
   id="XMLID_2996_-3"
   d="m 205.1853,87.856551 c -0.24633,0.09551 -0.5237,-1.035847 -2.14691,-2.207394 -1.26586,-0.914474 -2.85684,-1.384844 -5.1088,-0.835682 -1.65545,0.404709 -2.23366,1.324357 -2.23366,1.324357 0,0 0.26742,1.741402 1.77324,2.979803 1.27302,1.046194 2.77924,1.125385 2.71238,1.230442 -0.12973,0.201757 -1.663,0.08198 -3.06735,-0.83409 -1.12578,-0.732615 -2.26987,-2.084827 -2.46725,-3.612931 0.0525,-0.911292 2.4195,-2.833758 5.16491,-2.599369 2.74661,0.234389 3.74784,1.197015 4.76896,2.75775 0.79072,1.207759 0.86473,1.696434 0.60448,1.797114 z" /><path
   style="stroke-width:0.397944;fill:#800000"
   id="XMLID_2994_-4"
   fill="#c19a31"
   d="m 210.79073,101.28516 -6.12077,0.30324 c 0,0 1.71156,3.31288 6.11998,3.31288 4.40762,0 6.12316,-3.28781 6.12316,-3.28781 z" /><path
   style="stroke-width:0.397944;fill:#d40000"
   id="XMLID_2993_-4"
   d="m 213.22854,100.3484 c -1.05734,-0.32711 -1.92645,0.21808 -2.4386,0.21808 -0.51216,0 -1.38126,-0.54519 -2.4394,-0.21808 -1.05773,0.32751 -4.38534,1.3164 -4.07773,1.47836 0.79947,0.36492 2.52217,-0.26423 6.51713,-0.13172 3.99535,-0.13251 5.71765,0.49664 6.51752,0.13172 0.30642,-0.16196 -3.02119,-1.15045 -4.07892,-1.47836 z" /><path
   style="stroke-width:0.397944;fill:#d40000"
   id="XMLID_2992_-2"
   d="m 210.79153,104.38475 c -2.58106,0 -3.84891,-0.48351 -3.84891,-0.48351 0.35735,0.83409 1.58779,1.34466 3.84891,1.34466 2.26032,0 3.49076,-0.51057 3.84812,-1.34466 0,0 -1.26785,0.48351 -3.84812,0.48351 z" /><path
   style="stroke-width:0.397944"
   d="m 205.67318,80.366852 c 0.70237,-0.01074 1.26944,-0.38123 1.5862,-0.108241 0.61761,0.532847 0.28254,1.922864 -1.86158,2.044237 -1.44414,0.08118 -4.43508,-0.558315 -5.73596,-0.686453 -2.81744,-0.273785 -4.66669,0.05213 -5.66632,1.05296 0,0 0.95148,-2.302503 4.29779,-2.597379 3.90622,-0.345017 5.27634,0.328701 7.37987,0.294876 z"
   id="XMLID_2990_-7" /><g
   clip-path="url(#SVGID_2_)"
   id="g502"
   transform="matrix(1.0288329,0,0,1.0202709,-5.1899862,-2.5930604)">
		<path
   fill="#ffffff"
   stroke="#b1d4e9"
   stroke-miterlimit="10"
   d="m 307.145,182.426 c 0.965,-6.406 0.119,-15.154 -3.891,-22.212 -0.279,-0.477 -0.559,-0.954 -0.838,-1.431 -5.629,-9.496 -18.207,-15.442 -32.078,-11.932 -3.111,-7.195 -10.268,-12.234 -18.605,-12.234 -3.129,0 -6.08,0.729 -8.725,1.996 -10.861,-13.485 -33.76,-34.583 -69.5,-27.254 -35.607,7.301 -52.111,43.551 -52.111,43.551 -12.365,-11.472 -38.035,-6.538 -50.549,5.369 -13.182,12.543 -12.941,22.079 -12.941,22.079 -8.723,-5.598 -22.77,-0.002 -25.156,8.352 -1.902,6.619 0.693,13.419 6.855,16.707 0.361,0.174 0.754,0.344 1.117,0.519 11.682,5.761 18.875,2.569 18.875,2.569 13.926,30.026 40.236,22.223 52.27,16.104 3.766,-1.914 11.518,-5.231 11.518,-5.231 0,0 21.6,20.511 51.596,21.647 17.91,0.694 48.488,-8.619 55.641,-25.069 32.135,18.485 88.875,4.326 96.262,-14.094 2.935,-7.319 0.074,-24.855 -19.74,-19.436 z"
   id="path498" />
		<path
   fill="#797f81"
   d="m 326.883,201.86 c -7.387,18.42 -64.127,32.579 -96.262,14.094 -7.152,16.45 -37.73,25.764 -55.641,25.069 -29.996,-1.136 -51.596,-21.647 -51.596,-21.647 0,0 -7.752,3.317 -11.518,5.231 -12.033,6.119 -38.344,13.922 -52.27,-16.104 0,0 -7.193,3.192 -18.875,-2.569 -0.363,-0.175 -0.756,-0.345 -1.117,-0.519 1.33,-0.239 2.641,-0.508 3.898,-0.819 17.213,-4.068 40.248,-20.477 55.521,-5.115 -0.117,-11.977 -12.189,-20.195 -23.541,-18.802 5.088,-7.217 15.246,-10.33 23.615,-7.322 8.555,3.051 14.451,12.199 13.752,21.238 9.883,-4.75 18.283,-5.888 29.02,-3.98 10.738,1.924 17.775,8.636 22.193,18.625 -3.27,-17.672 -12.594,-27.728 -30.518,-26.688 -0.592,-10.099 0.523,-16.962 6.613,-25.053 6.072,-8.104 16.887,-13.066 26.641,-10.402 9.773,2.679 16.779,14.143 13.031,23.538 1.57,-2.398 7.297,-3.813 10.664,-1.522 2.641,1.796 3.338,6.85 2.711,8.935 2.689,-7.813 10.861,-13.362 19.117,-12.974 8.273,0.386 15.893,6.673 17.865,14.697 1.348,-14.974 -12.859,-29.354 -27.83,-28.202 20.779,-11.528 48.75,-3.965 51.881,19.701 8.033,-26.422 43.535,-21.095 49.014,-11.054 4.01,7.059 5.107,16.925 3.891,22.212 19.817,-5.421 22.678,12.115 19.741,19.432 z"
   id="path500" />
	</g><path
   id="XMLID_2208_"
   clip-path="url(#SVGID_2_)"
   d="m 192.943,173.994 c -1.306,0.173 -2.46,-0.359 -2.974,0.235 -1.001,1.16 0.006,3.647 4.019,3.282 2.701,-0.246 8.077,-2.258 10.459,-2.853 5.156,-1.286 8.678,-1.19 10.807,0.395 0,0 -2.398,-4.012 -8.69,-3.64 -7.349,0.437 -9.707,2.063 -13.621,2.581 z"
   transform="matrix(1.0288329,0,0,1.0202709,-5.1899862,-2.5930604)" /><path
   id="XMLID_2047_"
   clip-path="url(#SVGID_2_)"
   d="m 174.525,173.994 c 1.308,0.173 2.462,-0.359 2.974,0.235 1.001,1.16 -0.003,3.647 -4.016,3.282 -2.704,-0.246 -8.08,-2.258 -10.461,-2.853 -5.154,-1.286 -8.676,-1.19 -10.808,0.395 0,0 2.399,-4.012 8.691,-3.64 7.349,0.437 9.706,2.063 13.62,2.581 z"
   transform="matrix(1.0288329,0,0,1.0202709,-5.1899862,-2.5930604)" /><g
   id="XMLID_2061_"
   clip-path="url(#SVGID_2_)"
   transform="matrix(1.0288329,0,0,1.0202709,-5.1899862,-2.5930604)">
		<path
   id="XMLID_2067_"
   fill="#4b4a4f"
   d="m 183.737,213.253 c -7.755,0 -10.725,2.488 -10.725,2.488 0,0 3,5.15 10.722,5.15 7.724,0 10.729,-5.102 10.729,-5.102 0,0 -2.971,-2.536 -10.726,-2.536 z" />
		<path
   id="XMLID_2064_"
   d="m 188.312,211.729 c -2.008,-0.536 -3.616,0.41 -4.577,0.41 -0.961,0 -2.569,-0.946 -4.576,-0.41 -3.92,1.045 -8.229,4.604 -7.654,4.907 0.352,0.244 4.734,-2.629 12.23,-2.38 7.499,-0.25 11.88,2.624 12.23,2.38 0.576,-0.303 -3.735,-3.862 -7.653,-4.907 z" />
		<path
   id="XMLID_2063_"
   d="m 183.737,219.924 c -4.843,0 -7.224,-0.908 -7.224,-0.908 0.671,1.564 2.98,2.522 7.224,2.522 4.244,0 6.553,-0.958 7.224,-2.522 0,0.001 -2.38,0.908 -7.224,0.908 z" />
	</g><g
   id="XMLID_2035_"
   clip-path="url(#SVGID_2_)"
   transform="matrix(1.0288329,0,0,1.0202709,-5.1899862,-2.5930604)">
		<g
   id="XMLID_2037_">
			<path
   id="XMLID_2039_"
   fill="#4b4a4f"
   d="m 192.23,185.91 c 0.194,-1.108 0.605,-2.177 1.017,-3.098 1.249,-2.792 5.117,-6.683 12.098,-4.639 4.45,1.304 6.034,4.747 6.599,7.071 0,0 -1.668,3.481 -9.558,4.583 -6.265,0.874 -10.156,-3.917 -10.156,-3.917 z" />
			<path
   id="XMLID_2038_"
   d="m 212.294,184.13 c -0.651,0.23 -1.176,1.091 -4.484,2.866 -2.908,1.561 -4.941,1.867 -7.881,1.592 -2.939,-0.276 -4.69,-1.315 -6.075,-2.252 -1.021,-0.692 -2.37,-1.122 -1.336,1.081 1.035,2.202 4.738,4.634 9.332,4.271 4.594,-0.362 7.143,-1.728 9.492,-4.774 1.58,-2.047 1.445,-2.958 0.952,-2.784 z" />
		</g>
		<path
   id="XMLID_2036_"
   d="m 211.382,185.522 c 0,0 0.05,1.611 0.597,2.31 1.13,1.443 2.072,0.654 1.81,1.267 -0.262,0.612 -2.445,1.288 -4.122,-0.745 z" />
	</g><g
   id="XMLID_2018_"
   clip-path="url(#SVGID_2_)"
   transform="matrix(1.0288329,0,0,1.0202709,-5.1899862,-2.5930604)">
		<g
   id="XMLID_2022_">
			<path
   id="XMLID_2032_"
   fill="#4b4a4f"
   d="m 175.238,185.91 c -0.194,-1.108 -0.604,-2.177 -1.016,-3.098 -1.248,-2.792 -5.118,-6.683 -12.097,-4.639 -4.452,1.304 -6.036,4.747 -6.6,7.071 0,0 1.668,3.481 9.557,4.583 6.268,0.874 10.156,-3.917 10.156,-3.917 z" />
			<path
   id="XMLID_2024_"
   d="m 155.176,184.13 c 0.651,0.23 1.175,1.091 4.483,2.866 2.909,1.561 4.943,1.867 7.883,1.592 2.938,-0.276 4.689,-1.315 6.073,-2.252 1.024,-0.692 2.372,-1.122 1.337,1.081 -1.034,2.202 -4.739,4.634 -9.333,4.271 -4.594,-0.362 -7.14,-1.728 -9.49,-4.774 -1.58,-2.047 -1.447,-2.958 -0.953,-2.784 z" />
		</g>
		<path
   id="XMLID_2021_"
   d="m 156.087,185.522 c 0,0 -0.048,1.611 -0.597,2.31 -1.129,1.443 -2.07,0.654 -1.809,1.267 0.261,0.612 2.447,1.288 4.121,-0.745 z" />
	</g>
</svg>
